<?xml version="1.0" encoding="UTF-8" standalone="no"?>
<!-- Created with Inkscape (http://www.inkscape.org/) -->

<svg
   width="95.457161mm"
   height="37.908836mm"
   viewBox="0 0 95.457161 37.908836"
   version="1.1"
   id="svg1"
   xml:space="preserve"
   xmlns="http://www.w3.org/2000/svg"
   xmlns:svg="http://www.w3.org/2000/svg"><defs
     id="defs1" /><g
     id="layer1"
     transform="translate(-57.271421,-129.54558)"><path
       d="m 102.77478,157.08325 v -10.372 h 3.302 v 0.87489 c 0,0.48119 0.0211,0.89596 0.0468,0.92171 0.0258,0.0258 0.34008,-0.24502 0.6985,-0.60173 0.68978,-0.68649 1.4044,-1.104 2.4297,-1.4195 0.64473,-0.19842 2.7294,-0.22176 3.3867,-0.0379 1.5496,0.43347 2.9052,1.3819 3.7635,2.6333 2.1895,3.1922 1.6157,8.0143 -1.2332,10.364 -1.1193,0.92325 -2.3092,1.3759 -3.8441,1.4623 -1.8905,0.10642 -3.8231,-0.64572 -4.6984,-1.8285 -0.1392,-0.1881 -0.28166,-0.34289 -0.31658,-0.344 -0.0349,-10e-4 -0.0635,1.9602 -0.0635,4.3583 v 4.3603 h -3.4713 z m 8.437,0.85556 c 1.7458,-0.46484 2.8687,-2.0215 2.9685,-4.1152 0.0722,-1.5158 -0.34366,-2.7253 -1.2482,-3.6298 -1.5285,-1.5285 -3.8788,-1.4747 -5.4618,0.12507 -1.7145,1.7327 -1.7456,4.6545 -0.0688,6.4636 0.99636,1.075 2.4542,1.5174 3.8103,1.1563 z m -0.81701,7.0608 v -1.778 h 0.21166 c 0.1547,0 0.21167,0.0452 0.21167,0.16809 0,0.1676 8.5e-4,0.1676 0.27517,0 0.56922,-0.34706 1.3395,-0.13335 1.6154,0.44823 0.26923,0.56735 0.10544,1.2548 -0.38454,1.614 -0.32053,0.23496 -0.92432,0.22645 -1.2545,-0.0177 l -0.25155,-0.18598 v 0.76454 c 0,0.75906 -0.002,0.76454 -0.21167,0.76454 h -0.21166 v -1.778 z m 1.7241,0.0308 c 0.48773,-0.48771 0.13638,-1.4701 -0.52576,-1.4701 -0.38973,0 -0.77502,0.42738 -0.77502,0.85968 0,0.71943 0.81115,1.1001 1.3008,0.61043 z m -31.611001,1.2095 c 0,-0.0163 0.03624,-0.14016 0.08053,-0.27517 0.04429,-0.135 0.12196,-0.40739 0.17259,-0.6053 0.077,-0.30094 0.12619,-0.35983 0.30047,-0.35983 0.2527,0 0.25204,-0.0205 0.02241,0.6925 -0.15864,0.49255 -0.21468,0.5775 -0.381,0.5775 -0.10726,0 -0.195,-0.0134 -0.195,-0.0297 z m 17.949,0 c 0,-0.0163 0.03624,-0.14016 0.08053,-0.27517 0.04429,-0.135 0.12196,-0.40739 0.17259,-0.6053 0.077,-0.30094 0.12619,-0.35983 0.30047,-0.35983 0.2527,0 0.25204,-0.0205 0.02241,0.6925 -0.15864,0.49255 -0.21468,0.5775 -0.381,0.5775 -0.10726,0 -0.195,-0.0134 -0.195,-0.0297 z m 23.368001,0.006 c 0,-0.0196 0.0362,-0.14605 0.0805,-0.28106 0.0443,-0.13501 0.12196,-0.40739 0.1726,-0.6053 0.077,-0.30094 0.12618,-0.35984 0.30047,-0.35984 0.25071,0 0.25187,0.0651 0.0128,0.71967 -0.14336,0.39257 -0.22879,0.51415 -0.37597,0.53506 -0.10475,0.0149 -0.19045,0.011 -0.19045,-0.009 z m -61.490001,-0.68712 c -0.40963,-0.14972 -0.52509,-0.24963 -0.6899,-0.59693 -0.25198,-0.53103 -0.13878,-1.0485 0.32399,-1.4808 0.30972,-0.28936 1.0769,-0.34111 1.4628,-0.0987 0.39232,0.24645 0.5524,0.53967 0.55972,1.0253 0.01311,0.86858 -0.82893,1.4537 -1.6566,1.1512 z m 0.95982,-0.55257 c 0.28215,-0.28214 0.3229,-0.63108 0.11961,-1.0242 -0.25165,-0.48664 -0.7592,-0.56359 -1.1486,-0.17415 -0.19923,0.19923 -0.24749,0.3208 -0.24749,0.62345 0,0.75862 0.75346,1.098 1.2765,0.5749 z m 7.8372,0.58564 c -0.93308,-0.28681 -1.1034,-1.6833 -0.26823,-2.1995 0.31626,-0.19546 0.91295,-0.22305 1.2138,-0.0561 0.29414,0.16321 0.52288,0.56636 0.52351,0.92262 l 8.47e-4,0.3175 h -0.889 c -0.98516,0 -1.0831,0.0676 -0.68119,0.46952 0.25534,0.25534 0.69816,0.2764 0.98969,0.0471 0.16931,-0.13317 0.22933,-0.14246 0.35008,-0.0542 0.19379,0.1417 0.18593,0.17493 -0.08709,0.36815 -0.28187,0.19948 -0.82244,0.28623 -1.1521,0.1849 z m 1.0463,-1.4698 c 0,-0.25398 -0.34502,-0.56175 -0.62972,-0.56175 -0.32796,0 -0.72494,0.28154 -0.72494,0.51414 0,0.14754 0.06495,0.16319 0.67733,0.16319 0.51589,0 0.67733,-0.0276 0.67733,-0.11558 z m 2.7637,1.4678 c -0.48184,-0.14426 -0.6808,-0.52182 -0.50981,-0.96742 0.08122,-0.21166 0.48502,-0.38163 1.0459,-0.44026 0.41514,-0.0434 0.51012,-0.0817 0.51012,-0.20579 0,-0.3503 -0.59969,-0.52333 -1.0158,-0.29307 -0.20738,0.11478 -0.42358,0.0478 -0.42358,-0.1312 0,-0.14526 0.51049,-0.33042 0.90596,-0.32859 0.75274,0.003 0.95671,0.32682 0.95671,1.5166 0,0.78587 -0.01274,0.85223 -0.16363,0.85223 -0.08999,0 -0.18759,-0.0755 -0.21688,-0.16778 -0.05309,-0.16726 -0.0538,-0.16726 -0.23333,0 -0.09905,0.0923 -0.22694,0.16778 -0.2842,0.16778 -0.05726,0 -0.15485,0.0157 -0.21686,0.035 -0.06202,0.0192 -0.22163,0.002 -0.35469,-0.0375 z m 0.87078,-0.5593 c 0.09651,-0.12269 0.17548,-0.29414 0.17548,-0.381 0,-0.29882 -1.017,-0.1594 -1.138,0.15603 -0.1728,0.4503 0.63652,0.63947 0.96256,0.22497 z m 4.9697,0.52302 c -0.45447,-0.16335 -0.54421,-0.26823 -0.37462,-0.43784 0.12581,-0.1258 0.15229,-0.12575 0.33271,8.5e-4 0.21036,0.14735 0.63718,0.18002 0.82192,0.0629 0.06228,-0.0395 0.10038,-0.15929 0.08467,-0.26624 -0.02228,-0.1516 -0.1312,-0.22882 -0.49424,-0.35037 -0.78022,-0.26122 -0.9836,-0.71617 -0.50151,-1.1218 0.30426,-0.25601 0.79049,-0.29301 1.183,-0.09 0.27955,0.14456 0.30695,0.22599 0.12643,0.3758 -0.09774,0.0811 -0.16322,0.0745 -0.31517,-0.032 -0.2458,-0.17216 -0.60991,-0.17229 -0.7527,0 -0.16182,0.19498 -0.0042,0.39361 0.40672,0.51259 0.50291,0.1456 0.6986,0.27038 0.78646,0.50147 0.22921,0.60286 -0.55799,1.1132 -1.3037,0.84511 z m 5.0051,0.005 c -0.41593,-0.15203 -0.57223,-0.28833 -0.71081,-0.61987 -0.25115,-0.60081 -0.04188,-1.2768 0.48533,-1.5677 0.36541,-0.20165 1.093,-0.16868 1.3469,0.061 0.17063,0.15441 0.17063,0.15452 0.0014,0.27311 -0.14646,0.10258 -0.19484,0.1008 -0.35755,-0.0132 -0.2828,-0.19807 -0.55885,-0.1598 -0.83434,0.11569 -0.36605,0.36604 -0.32482,1.0236 0.08384,1.3373 0.18511,0.14211 0.61068,0.13397 0.82448,-0.0158 0.15936,-0.11162 0.19228,-0.10797 0.3223,0.0357 0.13756,0.152 0.13491,0.16642 -0.05281,0.28739 -0.29932,0.19289 -0.75275,0.23637 -1.1086,0.1063 z m 2.2636,0.002 c -0.37317,-0.16539 -0.46362,-0.44907 -0.46362,-1.4541 v -0.88501 h 0.21167 c 0.21134,0 0.21167,10e-4 0.21167,0.82783 0,0.92722 0.10948,1.2042 0.47603,1.2042 0.52989,0 0.7093,-0.34586 0.7093,-1.3673 0,-0.65257 0.0039,-0.6647 0.21167,-0.6647 h 0.21167 v 2.3707 h -0.21167 c -0.15626,0 -0.21167,-0.045 -0.21167,-0.17187 0,-0.17175 0,-0.17175 -0.23283,-0.004 -0.32199,0.23216 -0.61084,0.27784 -0.91222,0.14426 z m 5.7573,0 c -0.37317,-0.16539 -0.46362,-0.44907 -0.46362,-1.4541 v -0.88501 h 0.21167 c 0.21134,0 0.21167,10e-4 0.21167,0.82783 0,0.92722 0.10948,1.2042 0.47603,1.2042 0.52989,0 0.7093,-0.34586 0.7093,-1.3673 0,-0.65257 0.0039,-0.6647 0.21167,-0.6647 h 0.21167 v 2.3707 h -0.21167 c -0.15626,0 -0.21167,-0.045 -0.21167,-0.17187 0,-0.17175 0,-0.17175 -0.23283,-0.004 -0.32199,0.23216 -0.61084,0.27784 -0.91222,0.14426 z m 4.7555,0.0311 c -0.93308,-0.28681 -1.1034,-1.6833 -0.26823,-2.1995 0.31626,-0.19546 0.91295,-0.22305 1.2138,-0.0561 0.29414,0.16322 0.52288,0.56637 0.52351,0.92263 l 8.46e-4,0.3175 h -0.889 c -0.98516,0 -1.0831,0.0675 -0.68118,0.46951 0.25534,0.25534 0.69816,0.27641 0.98969,0.0471 0.16931,-0.13317 0.22933,-0.14246 0.35008,-0.0542 0.19379,0.1417 0.18593,0.17493 -0.08709,0.36815 -0.28187,0.19948 -0.82244,0.28623 -1.1521,0.18489 z m 1.0463,-1.4698 c 0,-0.25398 -0.34502,-0.56175 -0.62972,-0.56175 -0.32796,0 -0.72494,0.28154 -0.72494,0.51414 0,0.14754 0.06495,0.16319 0.67733,0.16319 0.51589,0 0.67733,-0.0276 0.67733,-0.11558 z m 10.806001,1.4315 c -0.45447,-0.16335 -0.54421,-0.26823 -0.37461,-0.43784 0.12581,-0.1258 0.15229,-0.12575 0.3327,8.5e-4 0.21037,0.14735 0.63719,0.18002 0.82192,0.0629 0.0623,-0.0395 0.10038,-0.15929 0.0847,-0.26624 -0.0223,-0.1516 -0.1312,-0.22882 -0.49424,-0.35037 -0.78022,-0.26122 -0.9836,-0.71617 -0.50151,-1.1218 0.30426,-0.25601 0.79049,-0.29301 1.183,-0.09 0.27955,0.14456 0.30695,0.22599 0.12643,0.3758 -0.0977,0.0811 -0.16322,0.0745 -0.31517,-0.032 -0.2458,-0.17216 -0.60991,-0.17229 -0.75269,0 -0.16182,0.19498 -0.004,0.39361 0.40672,0.51259 0.50291,0.1456 0.6986,0.27038 0.78646,0.50147 0.22921,0.60286 -0.55799,1.1132 -1.3037,0.84511 z m 5.7671,0.005 c -0.40962,-0.14973 -0.52508,-0.24964 -0.68989,-0.59694 -0.25199,-0.53103 -0.13878,-1.0485 0.32398,-1.4808 0.30972,-0.28935 1.0769,-0.34111 1.4628,-0.0987 0.39953,0.25098 0.5533,0.53828 0.5533,1.0338 0,0.87463 -0.82346,1.4448 -1.6502,1.1426 z m 0.95982,-0.55257 c 0.28215,-0.28215 0.3229,-0.63109 0.11961,-1.0242 -0.25165,-0.48664 -0.7592,-0.56359 -1.1486,-0.17415 -0.19923,0.19923 -0.24749,0.3208 -0.24749,0.62345 0,0.75863 0.75346,1.098 1.2765,0.57491 z m 4.9571,0.54742 c -0.45448,-0.16336 -0.54422,-0.26823 -0.37462,-0.43784 0.12581,-0.1258 0.15229,-0.12575 0.33271,8.5e-4 0.21036,0.14734 0.63718,0.18002 0.82191,0.0629 0.0623,-0.0395 0.10038,-0.15928 0.0847,-0.26623 -0.0223,-0.15161 -0.1312,-0.22882 -0.49424,-0.35037 -0.78022,-0.26122 -0.9836,-0.71618 -0.50151,-1.1218 0.30426,-0.25602 0.79049,-0.29302 1.183,-0.09 0.27955,0.14456 0.30695,0.22598 0.12643,0.3758 -0.0977,0.0811 -0.16322,0.0745 -0.31517,-0.032 -0.2458,-0.17216 -0.60991,-0.17229 -0.75269,0 -0.16182,0.19498 -0.004,0.39361 0.40672,0.51259 0.50291,0.1456 0.6986,0.27038 0.78646,0.50146 0.22921,0.60287 -0.55799,1.1132 -1.3037,0.84512 z m 5.0448,0.0398 c -0.5029,-0.11876 -0.86436,-0.61517 -0.86436,-1.1871 0,-0.36493 0.27603,-0.86121 0.5765,-1.0365 0.29567,-0.1725 0.90407,-0.18975 1.1854,-0.0336 0.29414,0.16321 0.52288,0.56636 0.52351,0.92262 l 8.5e-4,0.3175 h -0.889 c -0.8214,0 -0.889,0.0124 -0.889,0.16319 0,0.23099 0.39635,0.51415 0.71966,0.51415 0.15043,0 0.36546,-0.0723 0.47785,-0.16074 0.1693,-0.13318 0.22932,-0.14246 0.35008,-0.0542 0.19385,0.14174 0.18591,0.17518 -0.0871,0.36674 -0.28471,0.19976 -0.73176,0.27585 -1.1041,0.18792 z m 0.99831,-1.4714 c 0,-0.25398 -0.34502,-0.56175 -0.62973,-0.56175 -0.32796,0 -0.72494,0.28154 -0.72494,0.51414 0,0.14754 0.0649,0.16319 0.67733,0.16319 0.51589,0 0.67734,-0.0276 0.67734,-0.11558 z m 10.138,1.4367 c -0.40963,-0.14973 -0.52509,-0.24963 -0.6899,-0.59693 -0.25199,-0.53103 -0.13878,-1.0485 0.32398,-1.4808 0.30972,-0.28936 1.0769,-0.34112 1.4628,-0.0987 0.39953,0.25098 0.5533,0.53829 0.5533,1.0338 0,0.87464 -0.82346,1.4448 -1.6502,1.1426 z m 0.95981,-0.55257 c 0.28215,-0.28214 0.3229,-0.63109 0.11961,-1.0242 -0.25165,-0.48664 -0.7592,-0.5636 -1.1486,-0.17415 -0.19923,0.19922 -0.24749,0.3208 -0.24749,0.62345 0,0.75862 0.75346,1.098 1.2765,0.5749 z m 9.3245,0.58726 c -0.5029,-0.11876 -0.86436,-0.61517 -0.86436,-1.1871 0,-0.36493 0.27603,-0.8612 0.5765,-1.0365 0.29567,-0.1725 0.90407,-0.18976 1.1854,-0.0336 0.29414,0.16321 0.52288,0.56636 0.52351,0.92262 l 8.4e-4,0.3175 h -0.889 c -0.82139,0 -0.889,0.0124 -0.889,0.16318 0,0.23099 0.39635,0.51415 0.71967,0.51415 0.15043,0 0.36546,-0.0723 0.47784,-0.16074 0.16931,-0.13317 0.22933,-0.14246 0.35008,-0.0542 0.19386,0.14175 0.18591,0.17518 -0.0871,0.36674 -0.2847,0.19976 -0.73175,0.27585 -1.1041,0.18793 z m 0.9983,-1.4714 c 0,-0.25398 -0.34501,-0.56175 -0.62972,-0.56175 -0.32797,0 -0.72494,0.28154 -0.72494,0.51414 0,0.14754 0.0649,0.16319 0.67733,0.16319 0.51589,0 0.67733,-0.0276 0.67733,-0.11558 z m -89.239001,1.3009 c -0.14557,-0.14528 -0.16933,-0.28194 -0.16933,-0.97338 v -0.80434 h -0.25989 c -0.22108,0 -0.25585,-0.0284 -0.23283,-0.1905 0.01937,-0.13639 0.09318,-0.19811 0.25989,-0.21729 0.20359,-0.0234 0.23283,-0.0633 0.23283,-0.3175 0,-0.25364 0.02698,-0.29071 0.21167,-0.29071 0.18546,0 0.21167,0.0367 0.21167,0.29634 0,0.28222 0.01411,0.29633 0.29633,0.29633 0.25965,0 0.29633,0.0262 0.29633,0.21167 0,0.18546 -0.03669,0.21166 -0.29633,0.21166 h -0.29633 v 0.70931 c 0,0.76239 0.09574,0.9605 0.42288,0.87494 0.1352,-0.0354 0.16978,-0.003 0.16978,0.15934 0,0.18126 -0.03738,0.20375 -0.33867,0.20375 -0.22578,0 -0.39511,-0.0565 -0.508,-0.16934 z m 5.842,0 c -0.14557,-0.14528 -0.16933,-0.28194 -0.16933,-0.97338 v -0.80434 h -0.25989 c -0.22108,0 -0.25585,-0.0284 -0.23283,-0.1905 0.01937,-0.13639 0.09318,-0.19811 0.25989,-0.21729 0.20359,-0.0234 0.23283,-0.0633 0.23283,-0.3175 0,-0.25364 0.02698,-0.29071 0.21167,-0.29071 0.18546,0 0.21167,0.0367 0.21167,0.29634 0,0.28222 0.01411,0.29633 0.29633,0.29633 0.25965,0 0.29633,0.0262 0.29633,0.21167 0,0.18546 -0.03669,0.21166 -0.29633,0.21166 h -0.29633 v 0.70931 c 0,0.76239 0.09574,0.9605 0.42288,0.87494 0.1352,-0.0354 0.16978,-0.003 0.16978,0.15934 0,0.18126 -0.03738,0.20375 -0.33867,0.20375 -0.22578,0 -0.39511,-0.0565 -0.508,-0.16934 z m 1.4393,-1.6933 v -1.8627 h 0.42333 v 1.7056 l 0.22309,-0.17548 c 0.34003,-0.26747 0.82959,-0.2365 1.1381,0.072 0.24375,0.24375 0.24749,0.26165 0.24749,1.1853 0,0.93448 -8.47e-4,0.93785 -0.20396,0.93785 -0.20065,0 -0.20443,-0.0144 -0.23283,-0.88496 -0.01588,-0.48674 -0.06697,-0.92219 -0.11354,-0.96769 -0.20467,-0.19994 -0.52423,-0.19369 -0.76685,0.015 -0.22709,0.19534 -0.24232,0.25172 -0.27601,1.0222 -0.03466,0.79248 -0.04134,0.81545 -0.23724,0.81545 h -0.20157 z m 9.5673,0.67144 c 0,-1.1869 8.47e-4,-1.1911 0.1905,-1.1642 0.11927,0.0169 0.2002,0.0951 0.21642,0.20895 0.02574,0.18053 0.0275,0.18032 0.23526,-0.0274 0.14633,-0.14633 0.29142,-0.20487 0.48208,-0.19448 0.6962,0.0379 0.7384,0.0209 0.7384,-0.29863 0,-0.25965 0.02621,-0.29634 0.21167,-0.29634 0.18546,0 0.21167,0.0367 0.21167,0.29634 0,0.28222 0.01411,0.29633 0.29633,0.29633 0.25965,0 0.29633,0.0262 0.29633,0.21167 0,0.18546 -0.03669,0.21166 -0.29633,0.21166 h -0.29633 v 0.70931 c 0,0.76239 0.09574,0.9605 0.42288,0.87494 0.1352,-0.0354 0.16978,-0.003 0.16978,0.15934 0,0.18126 -0.03738,0.20375 -0.33867,0.20375 -0.56643,0 -0.67733,-0.18716 -0.67733,-1.143 v -0.80434 h -0.24779 c -0.1648,0 -0.26076,-0.0496 -0.28651,-0.14816 -0.03687,-0.14112 -0.03918,-0.14112 -0.04854,0 -0.0069,0.10409 -0.08147,0.14816 -0.2507,0.14816 -0.4289,0 -0.5597,0.25411 -0.59279,1.1517 -0.0286,0.77555 -0.03448,0.79562 -0.23283,0.79562 h -0.2035 z m 13.208,-0.67144 v -1.8627 h 0.42333 v 3.7253 h -0.42333 z m 1.6087,1.6933 c -0.14557,-0.14556 -0.16933,-0.28222 -0.16933,-0.97366 v -0.80434 h -0.25989 c -0.22108,0 -0.25585,-0.0284 -0.23283,-0.1905 0.01937,-0.13639 0.09318,-0.19811 0.25989,-0.21729 0.20359,-0.0234 0.23283,-0.0633 0.23283,-0.3175 0,-0.25364 0.02698,-0.29071 0.21167,-0.29071 0.18546,0 0.21167,0.0367 0.21167,0.29634 0,0.28222 0.01411,0.29633 0.29633,0.29633 0.25965,0 0.29633,0.0262 0.29633,0.21167 0,0.18546 -0.03669,0.21166 -0.29633,0.21166 h -0.29633 v 0.70931 c 0,0.76239 0.09574,0.9605 0.42288,0.87494 0.1352,-0.0354 0.16978,-0.003 0.16978,0.15934 0,0.18126 -0.03738,0.20375 -0.33867,0.20375 -0.22578,0 -0.39511,-0.0565 -0.508,-0.16934 z m 4.2333,-1.0219 c 0,-1.1869 8.47e-4,-1.1911 0.1905,-1.1642 0.11927,0.0169 0.2002,0.0951 0.21642,0.20895 0.0259,0.18166 0.02619,0.18164 0.22899,-0.0212 0.24115,-0.24115 0.77203,-0.29469 0.68548,-0.0691 -0.02827,0.0737 -0.05139,0.16891 -0.05139,0.21166 0,0.0428 -0.1084,0.0777 -0.24088,0.0777 -0.4289,0 -0.5597,0.25411 -0.59279,1.1517 -0.0286,0.77555 -0.03448,0.79562 -0.23283,0.79562 h -0.2035 z m 22.352001,0 c 0,-1.1869 8.5e-4,-1.1911 0.1905,-1.1642 0.11927,0.0169 0.2002,0.0951 0.21643,0.20895 0.0259,0.18166 0.0262,0.18164 0.22899,-0.0212 0.16547,-0.16548 0.28995,-0.20306 0.67256,-0.20306 h 0.46952 v -0.29633 c 0,-0.25965 0.0262,-0.29634 0.21167,-0.29634 0.18546,0 0.21167,0.0367 0.21167,0.29634 0,0.28222 0.0141,0.29633 0.29633,0.29633 0.25965,0 0.29633,0.0262 0.29633,0.21167 0,0.18546 -0.0367,0.21166 -0.29633,0.21166 h -0.29633 v 0.70931 c 0,0.76239 0.0957,0.9605 0.42288,0.87494 0.1352,-0.0354 0.16978,-0.003 0.16978,0.15934 0,0.18126 -0.0374,0.20375 -0.33866,0.20375 -0.56643,0 -0.67734,-0.18716 -0.67734,-1.143 v -0.80434 h -0.49487 c -0.71302,0 -0.80915,0.13075 -0.8468,1.1517 -0.0286,0.77555 -0.0345,0.79562 -0.23283,0.79562 h -0.2035 z m 10.753,0.006 c 0,-1.1466 0.006,-1.1853 0.17726,-1.1853 0.10558,0 0.19502,0.0679 0.22119,0.16799 0.0438,0.16754 0.0445,0.16754 0.25749,0 0.33032,-0.25983 0.82402,-0.22506 1.1286,0.0795 0.24375,0.24375 0.24749,0.26166 0.24749,1.1853 v 0.93784 h -0.21167 c -0.21021,0 -0.21166,-0.005 -0.21166,-0.76756 0,-0.8122 -0.065,-1.0333 -0.34829,-1.1849 -0.25997,-0.13913 -0.63516,0.0439 -0.74689,0.36445 -0.0496,0.14225 -0.0902,0.55775 -0.0902,0.92333 0,0.65257 -0.004,0.6647 -0.21166,0.6647 h -0.21167 z m 3.3588,1.1218 c -0.0731,-0.12249 -0.90342,-2.1973 -0.90342,-2.2575 0,-0.0335 0.10468,-0.0488 0.23262,-0.0341 0.21228,0.0244 0.26349,0.10817 0.58604,0.95812 0.31638,0.83368 0.36172,0.90914 0.43247,0.71967 0.6456,-1.7292 0.62793,-1.6933 0.83445,-1.6933 0.11023,0 0.20042,0.0365 0.20042,0.0812 0,0.0447 -0.19707,0.57805 -0.43793,1.1853 -0.41425,1.0444 -0.45061,1.1042 -0.67233,1.1042 -0.12893,0 -0.25146,-0.0286 -0.27232,-0.0635 z m 1.9752,-1.1219 v -1.1853 h 0.42333 v 2.3707 h -0.42333 z m 1.27,-0.006 c 0,-1.1869 8.5e-4,-1.1911 0.1905,-1.1642 0.11927,0.0169 0.20019,0.0951 0.21642,0.20895 0.0259,0.18166 0.0262,0.18163 0.22899,-0.0212 0.24115,-0.24115 0.77204,-0.29469 0.68548,-0.0691 -0.0283,0.0737 -0.0514,0.16891 -0.0514,0.21167 0,0.0428 -0.1084,0.0777 -0.24088,0.0777 -0.4289,0 -0.55969,0.25411 -0.59279,1.1517 -0.0286,0.77555 -0.0345,0.79561 -0.23283,0.79561 h -0.2035 z m 4.7413,0.006 c 0,-1.1466 0.006,-1.1853 0.17726,-1.1853 0.10558,0 0.19502,0.0679 0.22119,0.16799 0.0438,0.16754 0.0445,0.16754 0.25749,0 0.33033,-0.25984 0.82402,-0.22506 1.1286,0.0795 0.24375,0.24375 0.24749,0.26165 0.24749,1.1853 v 0.93785 h -0.21166 c -0.21021,0 -0.21167,-0.005 -0.21167,-0.76757 0,-0.8122 -0.065,-1.0333 -0.34828,-1.1849 -0.25997,-0.13914 -0.63517,0.0439 -0.74689,0.36444 -0.0496,0.14225 -0.0902,0.55775 -0.0902,0.92334 0,0.65256 -0.004,0.6647 -0.21167,0.6647 h -0.21167 z m 2.8787,0 c 0,-1.1466 0.006,-1.1853 0.17726,-1.1853 0.10558,0 0.19502,0.0679 0.22119,0.16799 0.0438,0.16754 0.0445,0.16754 0.25749,0 0.30752,-0.2419 0.82336,-0.22495 1.0642,0.035 l 0.18808,0.20294 0.23594,-0.20294 c 0.15205,-0.13079 0.34159,-0.20294 0.53311,-0.20294 0.68486,0 0.87871,0.33528 0.87871,1.5198 0,0.84232 -0.002,0.85088 -0.20373,0.85088 -0.19982,0 -0.2043,-0.0164 -0.23284,-0.85427 -0.0265,-0.7775 -0.0471,-0.86881 -0.22898,-1.016 -0.25949,-0.20997 -0.37665,-0.20391 -0.65301,0.0338 -0.21047,0.18104 -0.23054,0.25646 -0.27026,1.016 -0.0415,0.79398 -0.0494,0.82045 -0.24305,0.82045 -0.19706,0 -0.20013,-0.013 -0.20013,-0.84667 0,-0.73378 -0.0226,-0.86925 -0.16933,-1.016 -0.19539,-0.19539 -0.25514,-0.20377 -0.53702,-0.0753 -0.30283,0.13798 -0.39432,0.42155 -0.39432,1.2223 0,0.70695 -0.003,0.71568 -0.21166,0.71568 h -0.21167 z m 7.1967,0 c 0,-1.1466 0.006,-1.1853 0.17726,-1.1853 0.10557,0 0.19502,0.0679 0.22119,0.16799 0.0438,0.16754 0.0445,0.16754 0.25749,0 0.33032,-0.25984 0.82401,-0.22506 1.1286,0.0795 0.24374,0.24375 0.24749,0.26165 0.24749,1.1853 v 0.93785 h -0.21167 c -0.21021,0 -0.21167,-0.005 -0.21167,-0.76757 0,-0.8122 -0.065,-1.0333 -0.34828,-1.1849 -0.25997,-0.13914 -0.63516,0.0439 -0.74689,0.36444 -0.0496,0.14225 -0.0902,0.55775 -0.0902,0.92334 0,0.65256 -0.004,0.6647 -0.21167,0.6647 h -0.21166 z m 3.1327,1.016 c -0.14556,-0.14556 -0.16933,-0.28222 -0.16933,-0.97366 v -0.80434 h -0.25989 c -0.22108,0 -0.25585,-0.0284 -0.23284,-0.1905 0.0194,-0.13639 0.0932,-0.19811 0.2599,-0.21729 0.20359,-0.0234 0.23283,-0.0633 0.23283,-0.3175 0,-0.25364 0.027,-0.29071 0.21167,-0.29071 0.18546,0 0.21166,0.0367 0.21166,0.29634 0,0.28222 0.0141,0.29633 0.29634,0.29633 0.25964,0 0.29633,0.0262 0.29633,0.21167 0,0.18546 -0.0367,0.21166 -0.29633,0.21166 h -0.29634 v 0.70931 c 0,0.76239 0.0957,0.9605 0.42289,0.87494 0.13519,-0.0354 0.16978,-0.003 0.16978,0.15934 0,0.18126 -0.0374,0.20375 -0.33867,0.20375 -0.22578,0 -0.39511,-0.0565 -0.508,-0.16934 z m -19.215,-2.8316 c -0.22866,-0.27552 0.14975,-0.607 0.40339,-0.35337 0.10782,0.10783 0.11887,0.17399 0.0479,0.28675 -0.12363,0.19631 -0.3196,0.22525 -0.45125,0.0666 z m -66.552001,-1.7012 c -4.5378,-0.71749 -7.848,-3.9342 -8.6938,-8.4483 -0.19989,-1.0668 -0.19956,-3.3773 8.47e-4,-4.3909 0.29449,-1.4911 0.91736,-2.979 1.7302,-4.1332 0.52909,-0.7513 1.7125,-1.9095 2.4497,-2.3975 1.2254,-0.81118 2.5601,-1.368 4.0915,-1.7069 0.99955,-0.22119 3.4101,-0.27007 4.4962,-0.0912 1.5794,0.26013 3.2591,0.94399 4.3697,1.7791 0.5074,0.38152 1.1231,1.018 1.1231,1.1609 0,0.0377 -0.59817,0.54264 -1.3293,1.122 l -1.3293,1.0534 -0.58783,-0.55453 c -0.66545,-0.62775 -1.4128,-1.0232 -2.4686,-1.3062 -0.94521,-0.25335 -2.5143,-0.25235 -3.4713,0.002 -1.8833,0.50101 -3.4613,1.7624 -4.3571,3.4828 -1.1698,2.2467 -1.1885,5.3551 -0.04621,7.6582 0.87299,1.7601 2.2493,2.9021 4.1493,3.4429 0.90355,0.25716 2.8333,0.27837 3.683,0.0405 1.0924,-0.30582 2.0698,-0.89471 2.8363,-1.709 l 0.42333,-0.44965 1.414,0.98862 c 0.77768,0.54374 1.4159,1.0209 1.4182,1.0603 0.0075,0.12953 -1.1272,1.2472 -1.6891,1.6638 -1.2122,0.8985 -2.6882,1.5077 -4.2076,1.7367 -1.0154,0.15305 -3.0242,0.15101 -4.005,-0.004 z m 12.128,-11.279 0.02149,-10.901 h 3.3867 l 0.08466,9.906 0.19346,-0.31112 c 0.30084,-0.4838 1.1454,-1.2163 1.7308,-1.5011 0.74424,-0.36213 1.4224,-0.51632 2.2634,-0.51461 2.4271,0.005 4.1263,1.2829 4.8404,3.6406 0.18835,0.62188 0.19247,0.7258 0.22238,5.6078 l 0.03046,4.9742 h -3.4718 l -0.02662,-4.5508 c -0.02654,-4.5362 -0.02726,-4.5524 -0.22349,-5.0404 -0.27508,-0.68411 -0.66289,-1.1577 -1.1553,-1.4108 -0.36443,-0.18733 -0.52867,-0.21629 -1.2269,-0.21629 -0.68988,0 -0.87331,0.0315 -1.272,0.21855 -0.90548,0.42478 -1.5825,1.3458 -1.831,2.4908 -0.08153,0.37576 -0.111,1.5493 -0.1132,4.5085 l -0.003,4.0005 h -3.472 z m 16.884,10.844 c -0.03105,-0.031 -0.05645,-3.1362 -0.05645,-6.9003 v -6.8439 h 3.4713 v 13.801 h -1.6792 c -0.92358,0 -1.7046,-0.0254 -1.7357,-0.0564 z m 33.257001,-0.0494 c -0.0222,-0.0582 -0.0305,-3.1538 -0.0185,-6.8792 l 0.0219,-6.7733 3.429,-0.0458 v 13.804 h -1.696 c -1.2788,0 -1.7059,-0.026 -1.7364,-0.10584 z m 7.7222,0.0494 c -0.031,-0.031 -0.0564,-3.1362 -0.0564,-6.9003 v -6.8439 h 3.302 v 1.0583 c 0,0.58209 0.0286,1.0566 0.0635,1.0545 0.0349,-0.002 0.20187,-0.22557 0.37098,-0.49658 0.37285,-0.59749 1.2053,-1.3098 1.8938,-1.6205 1.2982,-0.58583 3.0494,-0.57236 4.3127,0.0332 1.2542,0.60117 2.0132,1.4867 2.5208,2.9408 l 0.27852,0.798 0.0522,10.033 h -3.473 l -0.0252,-4.5932 c -0.025,-4.558 -0.0267,-4.5968 -0.21848,-5.0711 -0.27274,-0.6745 -0.62374,-1.1236 -1.0944,-1.4002 -0.37189,-0.2186 -0.47637,-0.23849 -1.2524,-0.23849 -0.9934,0 -1.3994,0.14554 -2.0317,0.72842 -0.46538,0.42896 -0.75868,0.90417 -1.0024,1.6241 -0.16987,0.50175 -0.17946,0.72137 -0.20688,4.7383 l -0.0287,4.2122 h -1.6742 c -0.92081,0 -1.6996,-0.0254 -1.7306,-0.0564 z m -41.151001,-15.334 c -0.10008,-0.16194 0.49379,-2.3913 0.94088,-3.532 1.0277,-2.6222 2.545,-4.8834 4.602601,-6.8591 1.4823,-1.4234 2.9122,-2.416 4.7596,-3.3044 5.2394,-2.5195 11.247,-2.5055 16.44,0.0383 2.074,1.016 3.5642,2.0985 5.2135,3.7875 1.9538,2.0008 3.3698,4.2754 4.2967,6.9018 0.36012,1.0205 0.80553,2.8701 0.71337,2.9622 -0.0414,0.0414 -0.96518,0.065 -2.0529,0.0525 l -1.9777,-0.0228 -0.1471,-0.59267 c -0.35387,-1.4257 -1.1621,-3.1695 -2.1388,-4.6143 -0.75258,-1.1133 -2.4778,-2.8635 -3.6107,-3.6631 -1.608,-1.1348 -3.7341,-2.0374 -5.7714,-2.4502 -0.82707,-0.16756 -1.211,-0.19413 -2.7799,-0.19236 -1.9521,0.002 -2.5885,0.083 -4.1063,0.52103 -3.6277,1.047 -6.8327,3.5789 -8.6951,6.869 -0.677401,1.1966 -1.007701,2.009 -1.521201,3.7416 l -0.11294,0.381 -2.0049,0.0227 c -1.1027,0.0125 -2.0242,-0.009 -2.0477,-0.0466 z"
       fill="#40c957"
       stroke-width="0.084667"
       id="path1-2"
       style="fill:#ffffff" /></g></svg>
