<?xml version="1.0" encoding="UTF-8" standalone="no"?>
<!-- Created with Inkscape (http://www.inkscape.org/) -->

<svg
   width="75.087677mm"
   height="49.16037mm"
   version="1.1"
   viewBox="0 0 75.087677 49.16037"
   xml:space="preserve"
   id="svg1"
   sodipodi:docname="art optimisedSVG.svg"
   inkscape:version="1.3.2 (091e20e, 2023-11-25, custom)"
   xmlns:inkscape="http://www.inkscape.org/namespaces/inkscape"
   xmlns:sodipodi="http://sodipodi.sourceforge.net/DTD/sodipodi-0.dtd"
   xmlns="http://www.w3.org/2000/svg"
   xmlns:svg="http://www.w3.org/2000/svg"><defs
     id="defs1" /><sodipodi:namedview
     id="namedview1"
     pagecolor="#ffffff"
     bordercolor="#000000"
     borderopacity="0.25"
     inkscape:showpageshadow="2"
     inkscape:pageopacity="0.0"
     inkscape:pagecheckerboard="0"
     inkscape:deskcolor="#d1d1d1"
     inkscape:document-units="mm"
     inkscape:zoom="1.0449705"
     inkscape:cx="144.98016"
     inkscape:cy="168.90428"
     inkscape:window-width="2560"
     inkscape:window-height="1369"
     inkscape:window-x="-8"
     inkscape:window-y="-8"
     inkscape:window-maximized="1"
     inkscape:current-layer="svg1" /><path
     d="m 35.510568,49.109015 c -4.3032,-0.28754 -8.1566,-0.92144 -11.836,-1.9472 -5.8402,-1.628 -10.761,-4.0249 -14.918,-7.2671 -1.1427,-0.89111 -3.6048,-3.3268 -4.4633,-4.4155 -2.4207,-3.0695 -3.82129995,-6.2833 -4.22309995,-9.69 -0.14395,-1.2206 -0.05652,-3.6669 0.17199,-4.8126 0.28554,-1.4316 0.86448995,-3.1033 1.56019995,-4.505 1.0686,-2.1529 2.2918,-3.8185 4.1971,-5.7152 6.041,-6.0135004 15.73,-9.83500043 27.056,-10.67100043 1.537,-0.11347 6.3524,-0.11401 7.874,-8.7e-4 7.3151,0.5439 13.864,2.24590003 19.599,5.09330003 4.5599,2.2641 7.6982,4.6385 10.846,8.2063004 0.70391,0.79771 1.5369,1.9426 2.1048,2.8926 0.5423,0.90737 1.3152,2.6012 1.4858,3.2563 0.72223,2.7728 -1.8184,5.7949 -5.7149,6.7978 -1.442,0.37118 -2.2837,0.4913 -4.4873,0.64041 -2.4845,0.16811 -3.3506,0.33479 -4.3603,0.83912 -0.85231,0.42572 -1.707,1.1379 -2.0328,1.6939 -0.34901,0.59554 -0.27701,1.5189 0.15462,1.983 0.50995,0.54824 0.78341,0.58749 4.7992,0.68889 2.6886,0.0679 2.9985,0.0913 3.8947,0.2944 1.31,0.29686 2.5391,0.88972 3.0711,1.4814 0.73472,0.81719 0.95569,1.6428 0.70332,2.628 -0.25127,0.98078 -0.69442,1.5558 -2.1964,2.8502 -2.4049,2.0724 -4.4975,3.442 -7.5469,4.9393 -5.0852,2.4969 -10.777,4.004 -17.441,4.6184 -1.6921,0.15599 -6.6864,0.22912 -8.2973,0.12147 z m 6.0113,-1.8629 c 3.1002,-0.15404 5.2626,-0.42007 8.255,-1.0155 7.4718,-1.4869 14.14,-4.6862 18.449,-8.8511 l 0.88078,-0.85143 0.039,-0.47051 c 0.0611,-0.73635 -0.2963,-1.1072 -1.4617,-1.5168 -1.0192,-0.35823 -1.6022,-0.41892 -4.7837,-0.49794 -1.6997,-0.0422 -3.357,-0.11805 -3.683,-0.1685 -0.84794,-0.13123 -1.6938,-0.56898 -2.3192,-1.2003 -0.78231,-0.78962 -0.89833,-1.0894 -0.89689,-2.3171 8.4e-4,-0.58479 0.0479,-1.1721 0.11123,-1.3838 0.23358,-0.78065 1.7104,-2.0499 3.2261,-2.7727 1.3506,-0.64407 2.3101,-0.86109 4.6202,-1.045 3.2962,-0.26248 4.2374,-0.40649 5.5161,-0.84404 1.4441,-0.49415 2.9516,-1.6306 3.4048,-2.5667 0.28916,-0.59733 0.35828,-1.2064 0.19468,-1.7157 -0.2093,-0.65151 -1.3547,-2.8788 -1.8946,-3.6844 -1.589,-2.3706 -3.9776,-4.7562 -6.6705,-6.6624004 -5.0355,-3.5644 -11.78,-6.1072 -19.135,-7.2141 -2.6983,-0.40612 -4.2779,-0.52901 -7.4121,-0.57665 -3.9022,-0.0593 -5.8846,0.0684 -9.5212,0.6136 -8.1423,1.2206 -15.459,4.4022 -20.394,8.8681004 -2.4695,2.2349 -4.4597,5.1143 -5.3746,7.776 -1.0776,3.1348 -1.0866,6.4117 -0.02647,9.574 2.2805,6.8021 9.4696,12.733 19.36,15.97 6.092,1.9944 12.88,2.8822 19.516,2.5525 z m 14.741,-24.897 c -2.0935,-0.22533 -4.1976,-1.1567 -5.4955,-2.4326 -2.143,-2.1066 -1.391,-4.5619 1.6009,-5.2276 0.9477,-0.21084 2.6636,-0.13503 3.7938,0.16762 2.8999,0.77652 5.0612,2.572 5.2654,4.3741 0.23011,2.0306 -2.115,3.4467 -5.1646,3.1184 z m 2.358,-1.0646 c 1.2176,-0.30801 1.9016,-0.9591 1.9069,-1.8149 0.003,-0.49642 -0.44289,-1.2669 -1.0814,-1.8686 -0.91422,-0.86139 -2.0199,-1.439 -3.5443,-1.8514 -0.93763,-0.25371 -2.6686,-0.32171 -3.4157,-0.13418 -0.76336,0.1916 -1.4172,0.5428 -1.7274,0.92781 -0.23577,0.29268 -0.26191,0.38263 -0.25841,0.889 0.005,0.72143 0.21991,1.1473 0.93156,1.846 1.7122,1.681 4.9273,2.5783 7.1888,2.0062 z m -48.722,-0.73767 c -1.8173,-0.39643 -3.0374,-2.2167 -2.7085,-4.0408 0.3347,-1.8563 2.1373,-3.1581 3.968,-2.8656 1.8986,0.30331 3.2205,2.0633 2.9648,3.9474 -0.19578,1.4427 -1.415,2.7169 -2.8601,2.9889 -0.55771,0.10499 -0.76686,0.1004 -1.3643,-0.0299 z m 8.5726,-5.857 c -1.7543,-0.47239 -2.8798,-2.1761 -2.5828,-3.9097 0.52271,-3.0515004 4.2399,-4.0374004 6.2286,-1.6520004 0.4823,0.57853 0.68042,1.1944004 0.68736,2.1365004 0.0078,1.056 -0.21696,1.6822 -0.84832,2.3642 -0.91813,0.9917 -2.2436,1.3953 -3.4849,1.061 z m 31.561,-2.3759 c -1.6331,-0.59146 -2.653,-2.2524 -2.3728,-3.8644004 0.44575,-2.5645 3.2842,-3.8451 5.3804,-2.4274 1.6605,1.123 2.0817,3.2963 0.96016,4.9543004 -0.32059,0.47393 -0.74624,0.83183 -1.37,1.1519 -0.46976,0.24106 -0.61531,0.27249 -1.3722,0.2963 -0.62329,0.0196 -0.94666,-0.01 -1.2257,-0.11063 z m -21.253,-0.48729 c -0.68965,-0.14981 -1.238,-0.44897 -1.7363,-0.94731 -1.4116,-1.4116004 -1.3548,-3.6896004 0.12621,-5.0608004 0.72682,-0.6729 1.2458,-0.86137 2.3721,-0.86148 0.82422,-9e-5 0.93059,0.0196 1.4597,0.27025 0.33615,0.15924 0.74699,0.44665 0.99964,0.69929 0.25265,0.25265 0.54005,0.66349 0.69929,0.99964 0.25379,0.53577 0.27019,0.62777 0.2679,1.5021 -0.002,0.88683 -0.0161,0.95868 -0.28904,1.5037 -0.5017,1.0019004 -1.4458,1.7169004 -2.5414,1.9247004 -0.55037,0.10437 -0.76076,0.0997 -1.3581,-0.03 z m 10.392,-1.2466 c -0.85367,-0.20119 -1.8701,-0.9834304 -2.297,-1.7676004 -0.95516,-1.7549 -0.2097,-3.988 1.6208,-4.8551 0.53419,-0.25305 0.63031,-0.27036 1.502,-0.27036 0.85049,0 0.9736,0.0208 1.4182,0.23905 1.4506,0.71235 2.2516,2.2231 2.0062,3.7841 -0.30965,1.9692 -2.3179,3.3254004 -4.2502,2.8700004 z"
     fill="#40c957"
     stroke-width="0.084667"
     id="path1"
     style="fill:#ffffff" /></svg>
