<?xml version="1.0" encoding="UTF-8" standalone="no"?>
<!-- Created with Inkscape (http://www.inkscape.org/) -->

<svg
   width="67.22142mm"
   height="18.96524mm"
   version="1.1"
   viewBox="0 0 67.22142 18.96524"
   xml:space="preserve"
   id="svg1"
   sodipodi:docname="culture optimisedSVG.svg"
   inkscape:version="1.3.2 (091e20e, 2023-11-25, custom)"
   xmlns:inkscape="http://www.inkscape.org/namespaces/inkscape"
   xmlns:sodipodi="http://sodipodi.sourceforge.net/DTD/sodipodi-0.dtd"
   xmlns="http://www.w3.org/2000/svg"
   xmlns:svg="http://www.w3.org/2000/svg"><defs
     id="defs1" /><sodipodi:namedview
     id="namedview1"
     pagecolor="#ffffff"
     bordercolor="#000000"
     borderopacity="0.25"
     inkscape:showpageshadow="2"
     inkscape:pageopacity="0.0"
     inkscape:pagecheckerboard="0"
     inkscape:deskcolor="#d1d1d1"
     inkscape:document-units="mm"
     inkscape:zoom="1.0449705"
     inkscape:cx="137.32445"
     inkscape:cy="115.31426"
     inkscape:window-width="2560"
     inkscape:window-height="1369"
     inkscape:window-x="-8"
     inkscape:window-y="-8"
     inkscape:window-maximized="1"
     inkscape:current-layer="svg1" /><path
     d="m 9.10069,18.62264 c -1.2068,-0.46547 -3.0765,-1.4219 -4.0601,-2.0769 -2.6716,-1.779 -4.3818,-3.8533 -4.951,-6.0048 C 0.04031,10.35467 0,9.87842 0,9.48264 0,9.08682 0.04031,8.61057 0.08959,8.42434 0.65473,6.28814 2.34999,4.22244 4.99439,2.44774 5.98446,1.7833 8.04789,0.73484 9.19379,0.31404 L 10.04891,0 h 47.107 l 0.82181,0.30422 c 1.1953,0.4425 3.0595,1.3767 4.0815,2.0454 3.2176,2.1054 5.1622,4.7923 5.1622,7.133 0,2.3407 -1.9445,5.0276 -5.1622,7.133 -1.022,0.66869 -2.8861,1.6029 -4.0815,2.0454 l -0.82181,0.30422 -47.209,-0.016 -0.84667,-0.32656 z m 48.745,-1.5276 c 2.5613,-1.0198 4.9784,-2.6373 6.308,-4.2212 1.1449,-1.3638 1.7348,-2.8219 1.5455,-3.82 -0.50292,-2.6519 -3.61,-5.494 -7.8535,-7.1836 L 56.97616,1.52401 h -46.739 l -0.75713,0.2924 c -1.6756,0.64714 -3.6568,1.7783 -4.923,2.8108 -2.0847,1.6999 -3.339,3.8776 -3.0528,5.3 0.37149,1.8463 1.8847,3.7148 4.3304,5.3473 0.84776,0.56587 2.5936,1.4666 3.6266,1.8709 l 0.73996,0.28968 46.775,0.006 0.86953,-0.34622 z m -41.72,-3.1487 c -0.91116,-0.47899 -1.4494,-0.88583 -2.0963,-1.5846 -2.2606,-2.4417 -1.3081,-5.6416 2.2025,-7.3989 l 0.61172,-0.30622 h 32.309 l 0.62905,0.30146 c 2.3433,1.123 3.7197,3.1841 3.4029,5.0958 -0.2569,1.5504 -1.5685,3.0742 -3.4029,3.9532 l -0.62905,0.30146 -32.347,-0.004 -0.67979,-0.35736 z m 5.2095,-1.2488 c 0,-0.17394 -0.49871,-1.0691 -0.8716,-1.5645 -0.21008,-0.2791 -0.68766,-0.74793 -1.0613,-1.0419 -1.2889,-1.0139 -2.4963,-2.4774 -2.6857,-3.2552 -0.03128,-0.1285 -0.09213,-0.25543 -0.1352,-0.28205 -0.12816,-0.0792 -0.86216,0.44087 -1.3625,0.96538 -0.71138,0.74581 -0.86675,1.0977 -0.86675,1.9633 0,0.59367 0.03503,0.78572 0.20008,1.0969 0.3031,0.57145 1.0747,1.3279 1.8263,1.7904 l 0.6738,0.41466 h 2.1414 c 1.4107,0 2.1414,-0.0297 2.1414,-0.0871 z m 6.2206,-0.23043 c -0.40331,-0.97212 -1.0362,-1.7246 -2.3903,-2.8419 -0.38466,-0.3174 -0.90432,-0.83175 -1.1548,-1.143 -0.48485,-0.60246 -1.0317,-1.597 -1.1195,-2.0358 L 22.83804,6.18065 h -2.3601 c -1.832,0 -2.3599,0.0237 -2.3593,0.10583 0.0016,0.21284 0.51431,0.99285 0.99119,1.508 0.2692,0.29076 0.85632,0.82576 1.3047,1.1889 1.1977,0.96995 1.8771,1.962 2.2408,3.2722 l 0.1469,0.52916 h 4.8852 z m 6.7335,0.1991 c 0,-0.19435 -0.47396,-1.0355 -0.88287,-1.567 -0.21014,-0.2731 -0.64039,-0.69874 -0.95611,-0.94588 -1.5599,-1.221 -2.488,-2.392 -2.8973,-3.6552 l -0.10287,-0.3175 h -2.5334 c -1.3934,0 -2.5334,0.0206 -2.5334,0.0457 0,0.0251 0.07219,0.18706 0.16042,0.35983 0.32392,0.63432 0.92863,1.3456 1.666,1.9597 1.1245,0.93644 1.6146,1.4299 1.9864,1.9999 0.38692,0.59318 0.73095,1.397 0.81032,1.8934 l 0.0552,0.34549 h 2.6139 c 2.1826,0 2.6138,-0.0195 2.6138,-0.1184 z m 6.5193,0.0295 c 0,-0.36108 -1.0209,-1.7708 -1.6275,-2.2474 -1.7544,-1.3784 -2.6355,-2.4672 -3.0311,-3.7461 l -0.14827,-0.47932 -2.4649,-0.0224 c -1.3557,-0.0123 -2.4649,10e-4 -2.4649,0.03 0,0.0289 0.098,0.24767 0.21786,0.48624 0.31922,0.63555 0.87778,1.2474 1.9653,2.1528 0.53112,0.44216 1.1386,1.0372 1.3499,1.3223 0.47427,0.63985 0.91417,1.5368 1.0488,2.1385 l 0.10165,0.45421 h 2.5265 c 1.7076,0 2.5265,-0.0288 2.5265,-0.0889 z m 6.604,0.0378 c 0,-0.14451 -0.63656,-1.2328 -0.92591,-1.5829 -0.18273,-0.22114 -0.6482,-0.65716 -1.0344,-0.96895 -1.4641,-1.1821 -2.3038,-2.2377 -2.6957,-3.3887 L 42.54812,6.18064 h -2.4785 c -1.6417,0 -2.4785,0.0294 -2.4785,0.0871 0,0.0479 0.11471,0.31431 0.2549,0.59204 0.31055,0.61519 1.1272,1.4958 2.1248,2.2914 0.40992,0.32689 0.92374,0.83048 1.1418,1.1191 0.46936,0.62115 1.0133,1.7046 1.0932,2.1777 l 0.0569,0.33666 h 2.5749 c 1.4162,0 2.5749,-0.023 2.5749,-0.0511 z m 3.2662,-1.176 c 0.78617,-0.77828 1.0095,-1.2373 1.0095,-2.0748 0,-0.49902 -0.0439,-0.72565 -0.20514,-1.0583 -0.29077,-0.60002 -1.271,-1.5402 -2.0086,-1.9267 L 48.8695,6.18073 h -4.7529 l 0.16507,0.38508 c 0.34936,0.81503 1.0177,1.5714 2.2584,2.5557 0.38161,0.30276 0.87517,0.78128 1.0968,1.0634 0.47816,0.60861 0.99181,1.599 1.1316,2.1819 l 0.10033,0.41822 0.60535,-0.31715 c 0.37969,-0.19891 0.82871,-0.53826 1.2045,-0.91033 z"
     fill="#40c957"
     stroke-width="0.084667"
     id="path1"
     style="fill:#ffffff" /></svg>
