<?xml version="1.0" encoding="UTF-8" standalone="no"?>
<!-- Created with Inkscape (http://www.inkscape.org/) -->

<svg
   width="65.247543mm"
   height="48.249199mm"
   version="1.1"
   viewBox="0 0 65.247543 48.249199"
   xml:space="preserve"
   id="svg1"
   sodipodi:docname="enviroment optimisedSVG.svg"
   inkscape:version="1.3.2 (091e20e, 2023-11-25, custom)"
   xmlns:inkscape="http://www.inkscape.org/namespaces/inkscape"
   xmlns:sodipodi="http://sodipodi.sourceforge.net/DTD/sodipodi-0.dtd"
   xmlns="http://www.w3.org/2000/svg"
   xmlns:svg="http://www.w3.org/2000/svg"><defs
     id="defs1" /><sodipodi:namedview
     id="namedview1"
     pagecolor="#ffffff"
     bordercolor="#000000"
     borderopacity="0.25"
     inkscape:showpageshadow="2"
     inkscape:pageopacity="0.0"
     inkscape:pagecheckerboard="0"
     inkscape:deskcolor="#d1d1d1"
     inkscape:document-units="mm"
     inkscape:zoom="1.0449705"
     inkscape:cx="106.22309"
     inkscape:cy="187.08661"
     inkscape:window-width="2560"
     inkscape:window-height="1369"
     inkscape:window-x="-8"
     inkscape:window-y="-8"
     inkscape:window-maximized="1"
     inkscape:current-layer="svg1" /><path
     d="m 31.67112,48.023587 c -1.3105,-0.45393 -2.0396,-0.90582 -3.0647,-1.8996 l -0.694,-0.6728 -0.36395,0.26765 c -1.0314,0.75852 -2.7297,0.78114 -4.112,0.0548 -0.64654,-0.33974 -1.435,-1.0678 -1.846,-1.7045 -0.31826,-0.49309 -0.73958,-0.88863 -1.1,-1.0327 -0.13717,-0.0548 -0.79057,-0.231 -1.452,-0.39146 -2.0415,-0.49528 -2.8935,-1.0991 -3.5953,-2.5481 -0.33885,-0.69963 -0.38895,-0.75718 -1.2125,-1.3929 -0.47247,-0.36473 -0.96734,-0.79123 -1.0997,-0.94777 -0.20779,-0.24573 -0.60923,-1.0174 -0.74535,-1.4327 -0.0238,-0.0727 -0.20921,-0.1818 -0.41196,-0.24251 -1.0557,-0.3161 -2.345,-1.2584 -3.0786,-2.25 -1.0655,-1.4402 -1.5935,-3.1725 -2.0258,-6.6463 -0.2218,-1.7823 -0.25842,-1.8464 -1.6873,-2.952 -1.4224,-1.1006 -1.8578,-1.6499 -2.7585,-3.4802 -0.88125,-1.7906 -0.9717,-2.8504 -0.39474,-4.6249 0.21047,-0.64733 0.30538,-1.0948 0.30527,-1.4393 0,-0.44811 -0.0431,-0.57143 -0.41483,-1.1894 -0.5146,-0.85562 -1.59349998,-3.0598 -1.75239998,-3.5801997 -0.30216,-0.98948 -0.18311,-2.5541 0.27139,-3.5669 0.29747,-0.66284 0.99897998,-1.3453 1.48529998,-1.4449 0.66281,-0.13575 4.5945,-0.1876 6.1681,-0.0814 7.4016,0.49973 14.5,2.6801 20.033,6.1533997 0.48994,0.30755 0.90059,0.54586 0.91258,0.52959 0.012,-0.0163 0.0658,-0.27724 0.11955,-0.57992 0.0538,-0.30268 0.23495,-0.82851 0.40261,-1.1684997 0.1965,-0.39845 0.27794,-0.65425 0.22913,-0.71967 -0.32484,-0.4354 -1.7264,-2.1315 -2.3776,-2.8773 -1.3865,-1.5879 -3.5635,-3.3038 -5.6258,-4.4343 -1.1649,-0.63857 -1.2477,-0.71073 -1.2477,-1.08709997 0,-0.39533 0.245,-0.635 0.64912,-0.635 0.5769,0 3.0588,1.50069997 4.8542,2.93519997 1.3922,1.1123 3.2707,3.1608 4.3481,4.7414 l 0.41111,0.60315 0.46272,-0.21184 c 0.39432,-0.18053 0.59084,-0.21256 1.3292,-0.21665 0.75815,-0.004 0.92625,0.0226 1.3445,0.21404 l 0.47802,0.21885 0.55092,-0.77658 c 1.8918,-2.6667 4.2589,-4.8545 7.1636,-6.62089997 1.77,-1.0764 2.3828,-1.161 2.5835,-0.35685 0.0917,0.36736 -0.1437,0.61833997 -0.96829,1.03249997 -0.85045,0.42712 -2.4826,1.4965 -3.4578,2.2656 -1.2963,1.0223 -2.6485,2.4578 -4.6246,4.9092 l -0.32038,0.39745 0.2176,0.37131 c 0.29805,0.5085897 0.55707,1.2912997 0.55707,1.6833997 0,0.17897 0.0368,0.32541 0.0817,0.32541 0.045,0 0.39739,-0.20566 0.78317,-0.45702 3.9562,-2.5776997 9.6703,-4.7083997 15.109,-5.6335997 3.0077,-0.51174 4.5614,-0.64036 7.7331,-0.64012 3.3915,0 3.5929,0.0242 4.1749,0.49768 0.99569,0.8099 1.5172,2.9098 1.1114,4.4756 -0.14105,0.5443597 -1.3829,3.0984997 -1.8836,3.8741997 -0.43963,0.68098 -0.45224,1.1303 -0.0661,2.353 0.51999,1.6465 0.55054,2.2898 0.16963,3.5723 -0.15517,0.52248 -0.83837,1.9219 -1.282,2.6261 -0.40637,0.64497 -1.1938,1.4381 -2.1077,2.123 -0.81105,0.60775 -1.1788,0.98311 -1.3165,1.3436 -0.0455,0.11905 -0.17692,0.9213 -0.29212,1.7828 -0.54943,4.1085 -1.2525,5.9059 -2.8686,7.3336 -0.75582,0.6677 -1.1327,0.90296 -1.957,1.2217 -0.44742,0.17297 -0.70957,0.32071 -0.70957,0.3999 0,0.23149 -0.51899,1.1591 -0.83263,1.4882 -0.1707,0.17912 -0.53897,0.49948 -0.81837,0.71193 -0.85294,0.64853 -1.0587,0.88296 -1.3996,1.5949 -0.40849,0.85299 -1.0427,1.522 -1.7932,1.8914 -0.29653,0.14599 -1.1464,0.41544 -1.8886,0.59877 -1.587,0.39203 -1.8385,0.53714 -2.4211,1.3968 -1.0317,1.5224 -2.575,2.3256 -4.2707,2.2226 -0.65781,-0.0399 -1.4444,-0.34401 -1.8205,-0.7038 l -0.21651,-0.20708 -0.38888,0.45042 c -0.79836,0.92476 -2.2638,1.8488 -3.5685,2.2501 -0.73696,0.22669 -0.88108,0.22125 -1.7056,-0.0643 z m -5.336,-3.1813 c 0.49501,-0.14898 0.79237,-0.42126 1.2804,-1.1724 0.53454,-0.82271 0.80945,-1.398 1.2425,-2.6001 1.4807,-4.1103 2.0679,-9.5646 1.529,-14.203 -0.0284,-0.24448 -0.075,-0.4441 -0.10348,-0.44361 -0.11105,0.002 -1.0959,0.79057 -1.6318,1.3068 -2.2794,2.1956 -4.351,5.7638 -5.4341,9.3603 -0.42677,1.417 -0.71487,2.9198 -0.82894,4.324 l -0.10022,1.2336 0.36679,0.54013 c 0.65981,0.9716 1.3079,1.4602 2.2002,1.6586 0.63396,0.14095 1.0002,0.13985 1.4797,-0.004 z m 14.66,-0.21088 c 0.65628,-0.30468 1.104,-0.70907 1.5601,-1.4091 l 0.36001,-0.55257 -0.0545,-0.99049 c -0.22347,-4.0601 -1.9881,-8.6195 -4.7402,-12.248 -1.0126,-1.3349 -3.0447,-3.1838 -3.1958,-2.9076 -0.30902,0.56503 -0.31325,5.9964 -0.006,8.2535 0.371,2.7294 0.94051,5.0326 1.7312,7.0011 0.43321,1.0785 1.1716,2.3359 1.618,2.7553 0.52379,0.49207 1.7811,0.53711 2.7277,0.0977 z m -19.826,-4.6623 c 0.41014,-3.0931 1.798,-6.7549 3.6705,-9.6846 0.37546,-0.58745 0.64605,-1.0681 0.6013,-1.0681 -0.15422,0 -1.3065,0.61415 -2.0245,1.079 -2.5771,1.6686 -4.7662,4.0312 -5.9623,6.4348 -0.45459,0.91357 -0.72758,1.7039 -0.7878,2.2809 -0.0386,0.36992 -0.0113,0.49797 0.17388,0.81389 0.2407,0.41074 0.66909,0.82143 1.0952,1.0499 0.15072,0.0808 0.88362,0.30061 1.6287,0.48841 l 1.3547,0.34147 0.0606,-0.381 c 0.0333,-0.20955 0.11872,-0.81915 0.18973,-1.3547 z m 26.288,0.79644 c 0.3128,-0.17728 0.57086,-0.41635 0.8015,-0.74253 0.40964,-0.57932 0.42179,-0.85346 0.0854,-1.926 -0.84603,-2.6973 -3.4657,-5.8339 -6.5157,-7.8015 -0.65651,-0.42352 -1.9846,-1.1096 -2.0402,-1.054 -0.0197,0.0197 0.24962,0.48226 0.59849,1.0279 2.0719,3.2406 3.5414,7.3803 3.8202,10.762 l 0.0561,0.68106 1.3664,-0.3426 c 0.88037,-0.22074 1.5305,-0.43561 1.8278,-0.60407 z m -31.679,-3.655 c 1.586,-4.2137 6.5595,-8.6994 10.771,-9.7143 0.60549,-0.14592 0.6691,-0.18537 1.3688,-0.84894 0.40362,-0.38275 1.0323,-0.89551 1.397,-1.1395 0.36474,-0.24395 0.65935,-0.47741 0.6547,-0.51881 -0.005,-0.0414 -0.0142,-0.11335 -0.0212,-0.15991 -0.0227,-0.15104 -0.31067,-0.0915 -1.4587,0.30177 -1.4247,0.48799 -2.42,0.91118 -3.9827,1.6933 -3.6029,1.8033 -6.3339,3.8469 -8.7563,6.5522 -1.1877,1.3264 -1.9844,2.3711 -1.9855,2.6036 -10e-4,0.22015 0.13966,0.56761 0.36295,0.8963 0.14786,0.21764 1.2045,1.0776 1.321,1.0751 0.028,-8.5e-4 0.17618,-0.33397 0.32932,-0.74084 z m 34.385,0.5174 c 0.8296,-0.61207 1.278,-1.2149 1.278,-1.7181 0,-0.65049 -3.0938,-4.0407 -5.2684,-5.7731 -2.685,-2.1391 -6.6574,-4.2512 -9.9894,-5.3115 -0.69512,-0.22119 -0.88197,-0.22632 -0.93444,-0.0256 -0.0298,0.11386 0.0633,0.21959 0.34996,0.39757 0.58664,0.36423 1.2536,0.88653 1.9153,1.5 0.54952,0.50941 0.64634,0.56385 1.3078,0.73529 4.4388,1.1506 9.2834,5.7291 10.869,10.272 0.0683,0.19577 0.11339,0.18849 0.47236,-0.0764 z m -37.04,-3.344 0.50209,-0.68432 0.01,-1.6624 c 0.008,-1.3775 0.0418,-1.8111 0.19804,-2.5303 1.0766,-4.9566 4.6387,-9.9214 9.4156,-13.123 0.85598,-0.57378 2.3573,-1.387 3.1088,-1.6838 0.33703,-0.13316 0.61326,-0.26384 0.61384,-0.29042 0.003,-0.12581 -1.4797,-0.27712 -3.047,-0.31101 -1.9686,-0.0426 -3.0894,0.0726 -4.7618,0.48932 -5.1774,1.2901 -9.3802,4.884 -11.101,9.4926 l -0.30513,0.81723 0.15952,0.46364 c 0.0877,0.25501 0.24098,1.1034 0.34054,1.8852 0.50718,3.983 1.1107,5.5186 2.6805,6.8202 0.45169,0.37453 1.4703,0.99523 1.642,1.0006 0.0233,8.5e-4 0.26828,-0.30663 0.54443,-0.683 z m 40.107,0.42282 c 0.57329,-0.30555 1.6124,-1.1647 1.9583,-1.6192 0.9153,-1.2024 1.4167,-2.8828 1.7993,-6.0301 0.0736,-0.60537 0.21095,-1.3637 0.30524,-1.6851 l 0.17144,-0.58446 -0.22633,-0.6432 c -0.36714,-1.0434 -1.2696,-2.7088 -1.981,-3.6557 -2.6696,-3.5534 -6.6869,-5.8068 -11.468,-6.4327 -0.94394,-0.12359 -4.0792,-0.052 -4.9642,0.11341 l -0.635,0.11866 0.46567,0.19992 c 4.6744,2.0069 8.8903,6.0089 11.201,10.632 0.86453,1.7301 1.4205,3.4094 1.6785,5.0697 0.1157,0.74469 0.14467,2.5347 0.0487,3.0127 -0.0566,0.28224 -0.0216,0.35454 0.50273,1.0372 0.30998,0.40358 0.58142,0.73378 0.60317,0.73378 0.0218,0 0.26506,-0.12018 0.54067,-0.26708 z m -37.716,-3.2135 c 1.1557,-1.213 3.3144,-3.0004 4.7313,-3.9177 l 0.50765,-0.32862 0.0117,-1.3647 c 0.0208,-2.4347 0.48305,-4.6871 1.3471,-6.564 0.15883,-0.34499 0.27657,-0.63947 0.26164,-0.6544 -0.0149,-0.0149 -0.36766,0.27043 -0.78386,0.63414 -3.131,2.7361 -5.6056,6.7304 -6.3837,10.304 -0.16666,0.76542 -0.32595,2.4083 -0.2335,2.4083 0.0269,0 0.2706,-0.23277 0.54166,-0.51726 z m 34.716,-0.39291 c -0.15341,-2.7968 -1.8414,-6.5174 -4.2732,-9.4192 -0.69658,-0.83117 -2.6826,-2.8023 -2.9884,-2.9659 l -0.17337,-0.0928 0.17169,0.33654 c 0.53762,1.0538 1.0843,2.865 1.3199,4.3732 0.0728,0.46566 0.15547,1.5379 0.1838,2.3827 l 0.0515,1.5361 0.87172,0.60007 c 1.3084,0.90068 2.4902,1.879 3.7166,3.0769 0.60614,0.59204 1.1173,1.0778 1.1359,1.0795 0.0186,0.002 0.0114,-0.40651 -0.0161,-0.9071 z m -26.423,-5.5642 c 2.0394,-1.0229 3.4606,-1.592 4.6938,-1.8795 l 0.97888,-0.22816 -0.28769,-0.66543 c -0.81261,-1.8796 -0.83534,-4.7506 -0.054,-6.8194 0.35627,-0.94331 0.3547,-0.89359 0.0261,-0.82821 -0.43333,0.0862 -1.8372,0.54916 -2.3416,0.7722 -2.585,1.143 -4.677,5.4849 -4.677,9.7071 0,0.40868 0.0142,0.74305 0.0316,0.74305 0.0174,0 0.75081,-0.36074 1.6298,-0.80166 z m 19.336,0.61116 c 0,-0.10477 -0.0385,-0.69273 -0.0854,-1.3066 -0.1944,-2.5484 -0.90501,-4.8109 -2.0693,-6.5886 -0.48051,-0.73368 -1.6832,-1.8969 -2.2901,-2.2149 -0.54718,-0.28675 -2.0778,-0.8274 -2.6172,-0.92446 -0.30288,-0.0545 -0.3253,-0.0459 -0.26255,0.10055 0.63409,1.4802 0.84458,2.5443 0.83558,4.2242 -0.006,1.1652 -0.0373,1.4681 -0.22183,2.1656 -0.11801,0.44601 -0.33083,1.0412 -0.47293,1.3228 l -0.25836,0.51181 0.7254,0.14407 c 1.3533,0.26876 3.5145,1.1386 5.5738,2.2434 0.51223,0.27481 0.97896,0.50257 1.0372,0.50615 0.0582,0.004 0.10574,-0.0792 0.10563,-0.184 z m -35.846,-3.8548 c 1.502,-3.2148 4.2491,-5.9804 7.62,-7.6713 2.8076,-1.4083 5.484,-2.0389 8.626,-2.0324 1.7349,0.004 3.0571,0.15913 4.5297,0.53269 0.53552,0.13585 0.98578,0.23516 1.0006,0.22069 0.0399,-0.039 -0.93008,-0.7188 -1.8472,-1.2946 -4.1848,-2.6273997 -9.6945,-4.5789997 -15.325,-5.4282997 -2.4252,-0.36582 -3.7558,-0.46068 -6.5193,-0.46476 -2.9226,-0.004 -3.0031,0.008 -3.4971,0.52334 -0.43302,0.45197 -0.64848,2.1582 -0.37104,2.9383 0.16855,0.4739397 1.2586,2.6350997 1.6594,3.2898997 0.70765,1.1562 0.74977,1.8574 0.21045,3.5038 -0.52223,1.5942 -0.47142,2.2857 0.27755,3.777 0.78647,1.566 1.2709,2.1621 2.4805,3.0523 0.54738,0.40288 0.54817,0.40313 0.62863,0.20582 0.0443,-0.10865 0.28133,-0.62728 0.52671,-1.1525 z m 51.85,0.91125 c 0.90479,-0.67074 1.5895,-1.461 2.1289,-2.457 0.783,-1.4458 0.86361,-1.6929 0.86922,-2.6639 0.004,-0.75647 -0.0259,-0.93235 -0.28371,-1.651 -0.29875,-0.83263 -0.42811,-1.862 -0.31187,-2.4816 0.0299,-0.15962 0.24854,-0.60953 0.48576,-0.99981 0.61945,-1.0191 1.5601,-2.9268 1.7281,-3.5044997 0.16182,-0.55661 0.12504,-1.4124 -0.0921,-2.1436 -0.15131,-0.50952 -0.64224,-0.98963 -1.1132,-1.0887 -0.60949,-0.12819 -5.3029,-0.0644 -6.7572,0.0919 -4.4936,0.48279 -8.3302,1.4049 -12.179,2.9273 -1.5557,0.61534 -3.9362,1.7838997 -5.2338,2.5692997 -0.90097,0.54531 -2.2925,1.505 -2.2476,1.5499 0.0131,0.0131 0.36617,-0.0655 0.78469,-0.17449 4.5425,-1.1834 9.4606,-0.62755 13.584,1.5354 2.6642,1.3975 4.825,3.3404 6.4317,5.783 0.53025,0.80612 1.3806,2.4631 1.4882,2.8998 0.0315,0.12805 0.0771,0.23283 0.10131,0.23283 0.0242,0 0.30177,-0.19112 0.61686,-0.42471 z"
     fill="#6ec940"
     stroke-width="0.084667"
     id="path1"
     style="fill:#ffffff" /></svg>
