<?xml version="1.0" encoding="UTF-8" standalone="no"?>
<!-- Created with Inkscape (http://www.inkscape.org/) -->

<svg
   width="23.023884mm"
   height="52.956882mm"
   version="1.1"
   viewBox="0 0 23.023884 52.956882"
   xml:space="preserve"
   id="svg1"
   sodipodi:docname="food optimisedSVG.svg"
   inkscape:version="1.3.2 (091e20e, 2023-11-25, custom)"
   xmlns:inkscape="http://www.inkscape.org/namespaces/inkscape"
   xmlns:sodipodi="http://sodipodi.sourceforge.net/DTD/sodipodi-0.dtd"
   xmlns="http://www.w3.org/2000/svg"
   xmlns:svg="http://www.w3.org/2000/svg"><defs
     id="defs1" /><sodipodi:namedview
     id="namedview1"
     pagecolor="#ffffff"
     bordercolor="#000000"
     borderopacity="0.25"
     inkscape:showpageshadow="2"
     inkscape:pageopacity="0.0"
     inkscape:pagecheckerboard="0"
     inkscape:deskcolor="#d1d1d1"
     inkscape:document-units="mm"
     inkscape:zoom="1.0449705"
     inkscape:cx="35.407697"
     inkscape:cy="138.28141"
     inkscape:window-width="2560"
     inkscape:window-height="1369"
     inkscape:window-x="-8"
     inkscape:window-y="-8"
     inkscape:window-maximized="1"
     inkscape:current-layer="svg1" /><path
     d="m 11.2846,52.85735 c -0.0485,-0.0605 -0.16977,-0.27186 -0.26949,-0.46978 -0.15683,-0.31126 -0.28167,-0.41026 -0.92441,-0.73306 -1.3588,-0.68241 -2.2626,-1.3538 -3.5355,-2.6264 -1.6978,-1.6973 -2.6807,-3.215 -3.3762,-5.213 -1.404,-4.0337 -0.12272,-7.3767 3.1371,-8.1848 0.38632,-0.0958 0.92828,-0.14509 1.6002,-0.14565 0.98264,-8.5e-4 1.0388,0.009 1.7106,0.30428 l 0.69462,0.30513 0.0906,-0.27467 c 0.14172,-0.4294 0.15179,-1.8556 0.0143,-2.0219 -0.20451,-0.24723 -0.9755,-0.55109 -2.1784,-0.85854 -2.6562,-0.6789 -3.7907,-1.6571 -4.0344,-3.4789 -0.10341,-0.77289 -0.0551,-1.1298 0.27092,-2.0011 0.24597,-0.65743 0.65393,-1.1604 1.3545,-1.67 C 6.16663,25.5507 6.43451,25.3276 6.43434,25.2932 6.43341,25.10446 6.06006,24.66582 5.78181,24.5265 5.60536,24.4381 5.09904,24.30094 4.65661,24.22159 2.44211,23.82436 1.57641,23.47629 0.75171,22.65159 0.16662,22.0665 0,21.60119 0,20.55219 c 0,-0.62941 0.0391,-0.81066 0.34183,-1.585 0.41268,-1.0555 0.77594,-1.501 1.5353,-1.8828 0.92195,-0.46358 1.4791,-0.56529 2.447,-0.44672 0.45557,0.0558 0.86918,0.0762 0.91911,0.0454 0.15597,-0.0964 0.10476,-0.82648 -0.0791,-1.1281 -0.13108,-0.21498 -0.38479,-0.38086 -1.1239,-0.73484 -1.2274,-0.58784 -1.949,-1.221 -2.3853,-2.0932 -0.36795,-0.73549 -0.3865,-1.133 -0.0815,-1.7451 0.42548,-0.85383 1.2084,-1.335 2.3212,-1.4265 0.46361,-0.0381 0.75965,0.009 1.8785,0.30084 1.4791,0.38542 1.7621,0.41832 1.7621,0.20488 0,-0.0777 -0.19952,-0.56345 -0.44338,-1.0795 C 6.65387,8.05466 6.64848,8.03342 6.64736,7.23265 6.64636,6.4733 6.66136,6.40218 6.88471,6.10905 7.22027,5.66874 7.47513,5.52581 8.06971,5.4445 8.35461,5.4055 8.62569,5.33568 8.6721,5.28927 8.7199,5.24147 8.7593,4.66417 8.7629,3.95707 8.7679,3.00523 8.8046,2.60327 8.91824,2.26247 9.12351,1.64675 9.87799,0.56537 10.31814,0.25607 10.66317,0.01357 10.72616,0 11.50684,0 c 0.7549,0 0.85364,0.0194 1.1716,0.22975 0.44619,0.29527 1.0895,1.198 1.3659,1.9169 0.19459,0.50596 0.21715,0.68681 0.22366,1.7927 0.004,0.67648 0.0347,1.2744 0.0682,1.3286 0.0335,0.0542 0.24105,0.12197 0.46115,0.15049 0.66389,0.086 0.75714,0.11796 1.0407,0.35657 0.37134,0.31246 0.58303,0.81347 0.58528,1.3852 0.002,0.58501 -0.1619,1.1497 -0.59445,2.0442 -0.18426,0.38102 -0.33502,0.76145 -0.33502,0.84541 0,0.22638 0.26087,0.19774 1.7621,-0.19345 1.1189,-0.29155 1.4149,-0.33896 1.8785,-0.30084 1.0697,0.088 1.7933,0.50651 2.2651,1.3102 0.18398,0.31338 0.2316,0.50009 0.23033,0.90306 -0.002,0.6689 -0.31156,1.2493 -1.0692,2.0053 -0.46288,0.46186 -0.73581,0.64623 -1.4836,1.0022 -0.50399,0.23989 -1.0001,0.51385 -1.1024,0.6088 -0.27658,0.25655 -0.40894,1.0719 -0.20683,1.274 0.0547,0.0547 0.37226,0.048 0.92444,-0.0196 0.99245,-0.12158 1.4996,-0.0274 2.4614,0.45692 0.7889,0.39729 1.1156,0.80021 1.5446,1.9047 0.34082,0.87755 0.34713,0.91295 0.31085,1.7424 -0.0397,0.90866 -0.16461,1.2696 -0.63084,1.8237 -0.55576,0.66049 -1.8319,1.2712 -3.0972,1.4821 -1.7274,0.28801 -2.0059,0.37383 -2.3588,0.72673 -0.18025,0.18026 -0.32773,0.38276 -0.32773,0.44999 0,0.0672 0.28676,0.33807 0.63726,0.60187 0.71913,0.54123 1.0571,0.98079 1.3477,1.753 0.27831,0.73941 0.32966,1.1917 0.22263,1.9612 -0.24097,1.7325 -1.4011,2.7177 -3.9856,3.3848 -1.7859,0.46091 -2.2406,0.69653 -2.3371,1.211 -0.0554,0.29514 0.0772,1.7247 0.17456,1.8822 0.0261,0.0422 0.36144,-0.0611 0.74519,-0.22965 0.67535,-0.29665 0.73025,-0.30643 1.7137,-0.30562 1.7524,10e-4 2.8759,0.40538 3.8574,1.3869 1.5456,1.5456 1.8694,4.1008 0.87987,6.9436 -0.69545,1.998 -1.6784,3.5156 -3.3762,5.213 -1.2716,1.2712 -2.1768,1.944 -3.5305,2.6239 -0.67395,0.33848 -0.75892,0.40954 -0.97765,0.81772 -0.24553,0.45815 -0.50583,0.60626 -0.68123,0.38762 z m 1.0388,-2.3407 c 1.0874,-0.52647 2.4231,-1.4683 3.1105,-2.1933 l 0.23635,-0.24926 -0.70202,0.15671 c -0.74047,0.16531 -2.0634,0.22386 -2.6738,0.11834 -0.24571,-0.0425 -0.40629,-0.12863 -0.49657,-0.26644 -0.12209,-0.18633 -0.12135,-0.22215 0.009,-0.42074 0.13542,-0.20669 0.16524,-0.21378 0.62357,-0.14816 1.072,0.15345 2.4077,-0.0239 3.699,-0.49117 0.64241,-0.23245 0.7197,-0.28626 0.99478,-0.69265 0.48093,-0.7105 0.75533,-1.1737 0.71761,-1.2114 -0.0193,-0.0193 -0.43167,0.094 -0.91628,0.2518 -1.3993,0.45572 -2.856,0.58713 -3.3829,0.30518 -0.19634,-0.10508 -0.25561,-0.38102 -0.12128,-0.56472 0.0937,-0.12819 0.2515,-0.15288 1.0282,-0.1609 1.0445,-0.0108 1.8855,-0.19759 2.9938,-0.66501 1.0302,-0.4345 1.0634,-0.46548 1.2967,-1.2101 0.11318,-0.36121 0.23226,-0.78063 0.26463,-0.93205 l 0.0589,-0.27531 -0.62166,0.33532 c -1.622,0.87492 -3.1556,1.3039 -4.6835,1.3102 -1.1341,0.005 -1.503,-0.10213 -1.5523,-0.44931 -0.0495,-0.34863 0.0927,-0.39128 1.3238,-0.397 0.88429,-0.004 1.3323,-0.0481 1.8853,-0.18525 1.2366,-0.3066 2.6933,-0.95169 3.4467,-1.5263 0.29428,-0.22445 0.29436,-0.22474 0.24742,-0.77778 -0.0765,-0.90109 -0.0799,-0.90346 -0.68144,-0.47685 -1.3852,0.98232 -3.2762,1.5908 -5.32,1.712 -0.96372,0.0571 -2.193,-0.10707 -2.7342,-0.36518 -0.38319,-0.18273 -0.47651,-0.47818 -0.22917,-0.72553 0.17228,-0.17228 0.1853,-0.17293 0.62495,-0.0309 2.184,0.70561 5.6106,0.0109 7.4728,-1.5151 l 0.38217,-0.31317 -0.23167,-0.32761 c -0.12742,-0.18018 -0.25417,-0.32842 -0.28166,-0.32941 -0.0275,-10e-4 -0.35461,0.18127 -0.72694,0.40505 -1.1685,0.7023 -2.2887,0.97168 -2.4885,0.59843 -0.17253,-0.32237 0.01,-0.53183 0.60823,-0.69817 0.6091,-0.16934 1.873,-0.79859 1.8098,-0.90097 -0.0882,-0.14275 -0.87364,-0.35145 -1.4957,-0.39744 -0.78268,-0.0579 -1.228,0.0417 -2.1442,0.47944 -0.91672,0.43797 -1.4906,0.59652 -2.159,0.59652 -0.66843,0 -1.2423,-0.15855 -2.159,-0.59652 -0.91487,-0.43709 -1.3616,-0.53714 -2.1442,-0.48022 -1.181,0.0859 -2.0561,0.56198 -2.64,1.4364 -0.51313,0.76843 -0.63515,1.2641 -0.6305,2.5614 0.004,1.1868 0.12025,1.7526 0.6308,3.0764 0.85744,2.2234 2.8682,4.644 4.9832,5.9988 0.59065,0.37836 1.7762,0.95777 1.9598,0.95777 0.0748,0 0.43875,-0.1466 0.80881,-0.32576 z m -1.438,-18.05 C 10.63909,31.50519 10.20898,30.81445 9.2765,29.88295 8.5163,29.12353 8.32832,28.98478 7.5353,28.59775 6.68073,28.18069 6.0261,27.98263 5.5024,27.98263 c -0.21833,0 -0.25773,0.0412 -0.34409,0.35983 -0.12964,0.47831 -0.0375,1.4236 0.18029,1.8506 0.44782,0.87781 1.2686,1.3655 3.1133,1.8497 1.21,0.31764 1.9982,0.6125 2.343,0.87648 0.0931,0.0712 0.18184,0.11692 0.19727,0.10148 0.0154,-0.0155 -0.0325,-0.26476 -0.10667,-0.55405 z m 1.5906,0.30237 c 0.47089,-0.27597 0.89108,-0.41999 2.2238,-0.76223 1.7314,-0.44465 2.5588,-0.95346 2.9747,-1.8294 0.22693,-0.47793 0.32135,-1.3688 0.19486,-1.8386 -0.0875,-0.32508 -0.11968,-0.35609 -0.36782,-0.35495 -0.81648,0.004 -2.2362,0.58751 -3.1118,1.2795 -1.2833,1.0142 -2.0245,2.1267 -2.3196,3.4818 -0.062,0.28459 -0.0411,0.28582 0.40589,0.0239 z m 1.2325,-4.1272 c 0.82698,-0.66337 1.8381,-1.1885 2.6745,-1.389 0.32596,-0.0781 0.64981,-0.15808 0.71966,-0.17766 0.13019,-0.0365 0.0201,-0.14867 -0.87877,-0.8957 -0.62759,-0.52157 -0.6869,-1.1375 -0.17425,-1.8096 0.50612,-0.66356 1.1658,-0.92826 3.0257,-1.214 1.1493,-0.17656 2.3509,-0.77137 2.737,-1.3548 0.23838,-0.36022 0.39077,-1.1776 0.29973,-1.6078 -0.0568,-0.26851 -0.10217,-0.30672 -0.48289,-0.40696 -0.67962,-0.17894 -2.2853,-0.0833 -3.2142,0.19138 -2.115,0.62551 -4.2373,2.1104 -5.5666,3.8945 -0.95263,1.2787 -0.91045,1.0902 -0.91045,4.0676 v 2.5875 l 0.5309,-0.65849 c 0.292,-0.36216 0.84982,-0.9143 1.2396,-1.227 z M 10.743,24.70612 C 9.5378,22.59962 6.9886,20.66102 4.4642,19.93132 3.67194,19.7023 1.9102,19.62081 1.3594,19.7877 c -0.32027,0.097 -0.38733,0.15682 -0.45087,0.40203 -0.0927,0.35755 0.0439,1.19 0.25542,1.5575 0.33691,0.58523 1.7714,1.2894 2.9423,1.4444 1.0125,0.13403 1.9862,0.40424 2.3151,0.64245 0.97781,0.70832 1.1642,1.6501 0.45231,2.2859 -0.18248,0.16298 -0.48987,0.42282 -0.6831,0.57741 -0.19322,0.15459 -0.33269,0.31119 -0.30994,0.348 0.0228,0.0368 0.21593,0.0909 0.42927,0.1201 1.294,0.17737 3.3544,1.498 4.2911,2.7505 l 0.36333,0.48584 0.0224,-2.6153 0.0224,-2.6153 z m 2.422,-2.6078 c 2.1514,-2.1392 5.0969,-3.4297 7.599,-3.3292 0.45425,0.0182 0.82576,0.0128 0.82559,-0.0122 -0.001,-0.216 -0.40629,-0.62719 -0.82232,-0.83536 -0.89207,-0.44636 -1.0518,-0.47322 -2.1117,-0.3551 -0.89381,0.0996 -0.97443,0.0961 -1.2672,-0.0558 -0.41485,-0.21529 -0.6246,-0.62224 -0.624,-1.2107 8.5e-4,-0.67444 0.13775,-1.0722 0.50675,-1.4707 0.33766,-0.36461 0.45149,-0.43395 1.5533,-0.94618 0.46087,-0.21426 0.80995,-0.45512 1.143,-0.78866 0.45855,-0.4592 0.86346,-1.1391 0.74748,-1.255 -0.0302,-0.0302 -0.3821,0.009 -0.78209,0.088 -3.2019,0.62912 -6.53,2.687 -7.5486,4.6675 -0.41594,0.80872 -0.44416,1.0679 -0.44524,4.0896 l -10e-4,2.8196 0.44323,-0.53355 c 0.24378,-0.29345 0.59649,-0.68596 0.78381,-0.87224 z m -2.2893,-4.9647 c -0.58358,-1.757 -3.2064,-3.7853 -6.1768,-4.7767 -0.94513,-0.31545 -2.2973,-0.60483 -2.3905,-0.51159 -0.11787,0.11786 0.43193,0.99609 0.85818,1.3708 0.23748,0.20879 0.85067,0.58302 1.363,0.83187 0.52924,0.25705 1.0486,0.57567 1.2029,0.738 0.75714,0.79639 0.69078,2.3584 -0.11646,2.7414 -0.27306,0.12958 -0.39688,0.13336 -1.25,0.0383 -1.0492,-0.11695 -1.2142,-0.0893 -2.0936,0.35063 -0.42584,0.21304 -0.83335,0.6085 -0.83304,0.80842 7e-5,0.0394 0.52394,0.0751 1.1642,0.0793 0.9692,0.006 1.3022,0.0446 1.9895,0.22794 2.016,0.53784 3.6989,1.545 5.3129,3.1797 l 1.0583,1.0719 0.0223,-2.8746 c 0.0188,-2.4301 0.002,-2.9366 -0.11086,-3.2755 z m 2.4422,-3.0427 c 1.6873,-1.427 4.0131,-2.5574 6.195,-3.0108 0.39731,-0.0826 0.72238,-0.17337 0.72238,-0.20175 0,-0.13217 -0.6898,-0.36262 -1.1853,-0.396 -0.4544,-0.0306 -0.73482,0.0167 -1.6087,0.27151 -1.8215,0.53108 -2.4836,0.48456 -2.7673,-0.19447 -0.18688,-0.44726 -0.0957,-0.89776 0.3955,-1.9549 0.23345,-0.50234 0.42445,-1.0176 0.42445,-1.1449 0,-0.20121 -0.025,-0.22385 -0.1905,-0.1726 -0.93943,0.29098 -2.3615,1.4446 -3.0952,2.511 l -0.27035,0.39296 v 5.3613 l 0.38516,-0.47283 c 0.21185,-0.26007 0.65952,-0.70486 0.99484,-0.98845 z m -2.3113,-1.3858 v -2.6622 L 10.59771,9.50896 c -0.68354,-0.8926 -2.1013,-1.9902 -2.8719,-2.2234 -0.16438,-0.0497 -0.1905,-0.0266 -0.1905,0.16841 0,0.12433 0.18882,0.65258 0.41959,1.1739 0.49907,1.1274 0.57759,1.5073 0.39955,1.9334 -0.27511,0.65846 -0.96516,0.72226 -2.5971,0.24011 -0.48895,-0.14445 -1.1034,-0.28603 -1.3653,-0.31464 -0.53717,-0.0587 -1.2029,0.0722 -1.495,0.29384 -0.19056,0.14461 -0.18223,0.14889 0.59267,0.30428 2.4831,0.49794 5.1593,1.8977 6.7549,3.5331 0.39582,0.40568 0.7292,0.74024 0.74084,0.74346 0.0116,0.003 0.0212,-1.1921 0.0212,-2.6563 z m 2.5066,-5.4778 C 13.79751,7.01854 14.24453,6.75485 14.50659,6.64136 14.76863,6.52786 14.98368,6.40642 14.98448,6.3715 14.98533,6.3366 14.77135,6.308 14.50909,6.308 14.07303,6.308 14.00815,6.2824 13.75036,6.00911 13.36699,5.60261 13.29852,5.2851 13.35349,4.16871 13.40719,3.07791 13.28169,2.47231 12.8667,1.81991 12.60066,1.40169 12.13035,0.88924 12.01254,0.88924 c -0.042,0 -0.0746,1.692 -0.0746,3.8658 v 3.8658 l 0.52917,-0.50696 c 0.29104,-0.27882 0.76179,-0.67777 1.0461,-0.88656 z m -2.5066,-2.5287 c 0,-3.8056 0,-3.8106 -0.17152,-3.7042 C 10.622,1.12677 10.02865,1.9629 9.85806,2.37122 9.6772,2.80407 9.5837,3.71762 9.65443,4.36062 c 0.0858,0.78022 -0.0379,1.2998 -0.39447,1.6563 -0.26058,0.26058 -0.33939,0.291 -0.75384,0.291 -0.25457,0 -0.46183,0.0286 -0.46057,0.0635 10e-4,0.0349 0.24578,0.17224 0.54339,0.30514 0.5284,0.23596 1.6188,1.045 2.116,1.5701 0.13678,0.14442 0.2606,0.26259 0.27517,0.26259 0.0146,0 0.0265,-1.7148 0.0265,-3.8107 z"
     fill="#40c96e"
     stroke-width="0.084667"
     id="path1"
     style="fill:#ffffff" /></svg>
