<?xml version="1.0" encoding="UTF-8" standalone="no"?>
<!-- Created with Inkscape (http://www.inkscape.org/) -->

<svg
   width="63.716263mm"
   height="46.884071mm"
   version="1.1"
   viewBox="0 0 63.716263 46.884071"
   xml:space="preserve"
   id="svg1"
   sodipodi:docname="heritage optimisedSVG.svg"
   inkscape:version="1.3.2 (091e20e, 2023-11-25, custom)"
   xmlns:inkscape="http://www.inkscape.org/namespaces/inkscape"
   xmlns:sodipodi="http://sodipodi.sourceforge.net/DTD/sodipodi-0.dtd"
   xmlns="http://www.w3.org/2000/svg"
   xmlns:svg="http://www.w3.org/2000/svg"><defs
     id="defs1" /><sodipodi:namedview
     id="namedview1"
     pagecolor="#ffffff"
     bordercolor="#000000"
     borderopacity="0.25"
     inkscape:showpageshadow="2"
     inkscape:pageopacity="0.0"
     inkscape:pagecheckerboard="0"
     inkscape:deskcolor="#d1d1d1"
     inkscape:document-units="mm"
     inkscape:zoom="1.0449705"
     inkscape:cx="101.43827"
     inkscape:cy="256.94504"
     inkscape:window-width="2560"
     inkscape:window-height="1369"
     inkscape:window-x="-8"
     inkscape:window-y="-8"
     inkscape:window-maximized="1"
     inkscape:current-layer="svg1" /><path
     d="m 31.254457,46.674472 c -0.1143,-0.1143 -0.20781,-0.28971 -0.20781,-0.38978 0,-0.33922 -1.962,-2.471 -3.302,-3.5877 -4.3341,-3.6119 -9.964,-5.7568 -16.933,-6.4513 -1.9638996,-0.1957 -6.5245996,-0.19809 -8.5891996,-0.004 -1.2957,0.1215 -1.4616,0.12186 -1.7106,0.004 -0.34207,-0.16232 -0.43841,-0.27568 -0.50123,-0.58978 -0.0409,-0.20444 0.0257,-0.34811 0.38868,-0.83859 0.5672,-0.76645 0.73325,-1.0992 0.94303,-1.8899 0.12455,-0.46943 0.17292,-0.91906 0.1746,-1.623 0.003,-1.4026 -0.28214,-2.5497 -0.9365,-3.7628 l -0.32447,-0.60154 -0.0569,-5.713 c -0.0313,-3.1421 -0.0582,-9.0426 -0.0597,-13.1119999 -0.003,-7.33710004 -0.001,-7.40060004 0.17013,-7.58320004 0.21634,-0.23028 1.1474,-0.33779 4.1792,-0.48254 3.7502,-0.17905 7.7927996,0.13354 11.2129996,0.86699 4.777,1.02450004 9.1254,2.99920004 12.448,5.65270004 1.0434,0.83334 2.5251,2.2506 3.1998,3.0606 l 0.48996,0.5881999 0.29822,-0.3574899 c 1.1685,-1.4008 3.1271,-3.1698 4.7393,-4.2805 4.9378,-3.4019 10.695,-5.15390004 18.174,-5.53010004 2.1017,-0.10572 4.9065,-0.0297 7.1542,0.19398 1.0612,0.10559 1.4121,0.22835 1.483,0.51879 0.0254,0.10393 0.0354,5.98660004 0.0224,13.07299994 l -0.0237,12.884 -0.18384,0.19731 c -0.3163,0.33948 -0.88059,1.5813 -1.1046,2.4307 -0.17236,0.65366 -0.21594,1.0237 -0.2206,1.8729 -0.008,1.5303 0.28502,2.5115 1.0554,3.5296 0.21806,0.28814 0.42002,0.59809 0.4488,0.68877 0.0819,0.25804 -0.12611,0.60619 -0.46569,0.77942 -0.2982,0.15213 -0.36483,0.15304 -1.7401,0.0237 -2.0168,-0.18961 -6.7016,-0.18761 -8.5759,0.004 -7.2785,0.74274 -12.99,2.9749 -17.323,6.7698 -1.3612,1.1923 -2.921,2.9373 -2.921,3.2678 0,0.32793 -0.36513,0.60056 -0.80434,0.60056 -0.2998,0 -0.43622,-0.0475 -0.59651,-0.20782 z m 1.4885,-3.5599 c 0.81504,-1.6858 0.5823,-3.4028 -0.67139,-4.953 -0.22385,-0.27678 -0.36189,-0.1926 -0.83129,0.50693 -0.55097,0.82109 -0.73978,1.4755 -0.73316,2.5411 0.007,1.1853 0.26601,1.9008 1.0377,2.8708 l 0.29684,0.37309 0.28692,-0.33075 c 0.1578,-0.18192 0.43428,-0.63555 0.61438,-1.0081 z m -3.628,-1.7993 c -0.0523,-1.4558 0.42784,-2.8006 1.4233,-3.9862 l 0.51916,-0.61831 -0.40755,-0.47903 c -2.5325,-2.9765 -5.8836,-5.3148 -9.8902,-6.9011 -3.8959,-1.5424 -7.9616,-2.2966 -12.9539996,-2.4029 -2.1165,-0.0451 -5.6747,0.0749 -5.7958,0.19535 -0.0212,0.0211 0.0111,0.16068 0.0717,0.31025 0.62847,1.5508 0.79767,2.3748 0.79475,3.8703 -0.003,1.3322 -0.1481,2.0993 -0.57517,3.0321 -0.11708,0.25574 -0.19624,0.48162 -0.1759,0.50196 0.0203,0.0203 0.63639,-0.004 1.369,-0.0552 0.73263,-0.0507 2.1286,-0.0922 3.1022,-0.0922 8.8046996,0 16.2309996,2.2869 21.6989996,6.6818 0.46566,0.37433 0.84666,0.68149 0.84666,0.68258 0,0.001 -0.012,-0.33163 -0.0266,-0.73939 z m 6.6519,-0.24092 c 3.8465,-3.0364 9.0178,-5.0943 14.969,-5.9566 2.7284,-0.39537 6.616,-0.53298 9.472,-0.3353 0.73263,0.0507 1.3479,0.0764 1.3672,0.057 0.0193,-0.0194 -0.0591,-0.23072 -0.17442,-0.4697 -0.44296,-0.91821 -0.59227,-1.7219 -0.58537,-3.1508 0.007,-1.4508 0.17682,-2.3132 0.69552,-3.5321 l 0.2564,-0.60252 -0.73407,-0.0705 c -1.1765,-0.11306 -6.6874,-0.0842 -7.8884,0.0413 -4.8174,0.50343 -8.4337,1.4795 -11.98,3.2337 -1.7771,0.87896 -3.0047,1.6337 -4.3525,2.676 -1.0697,0.82724 -2.7751,2.4647 -3.5061,3.3664 l -0.47229,0.58262 0.37722,0.46308 c 0.93159,1.1436 1.3446,2.2824 1.3476,3.7161 l 0.002,0.94178 0.254,-0.20447 c 0.1397,-0.11246 0.56839,-0.45265 0.95264,-0.75598 z m -0.15697,-8.915 c 4.0814,-3.2425 9.1214,-5.308 15.093,-6.1856 2.4559,-0.36091 4.1312,-0.45026 7.3943,-0.39437 1.6764,0.0287 3.3338,0.0748 3.683,0.1024 l 0.635,0.0502 -0.0223,-12.004 c -0.0123,-6.6020999 -0.0432,-12.0249999 -0.0686,-12.0499999 -0.24815,-0.24815 -6.9624,-0.3477 -9.1801,-0.13612 -8.7719,0.83695 -15.457,3.9157 -19.922,9.1752999 l -0.60951,0.71791 -0.0226,11.79 -0.0226,11.79 1.081,-1.0786 c 0.59451,-0.59321 1.4771,-1.3933 1.9613,-1.778 z m -0.79566,-3.4068 c -0.27116,-0.15158 -0.381,-0.33936 -0.381,-0.6513 0,-0.32404 0.14167,-0.48269 1.2084,-1.3534 2.7782,-2.2674 6.6123,-4.3349 10.264,-5.5346 3.1848,-1.0464 6.7451,-1.5975 9.5332,-1.4756 2.4698,0.10795 4.9947,0.68724 5.2281,1.1995 0.14147,0.3105 0.12125,0.49238 -0.0837,0.75296 -0.22144,0.28151 -0.46108,0.27165 -1.7236,-0.0709 -2.4164,-0.65569 -5.7472,-0.67219 -8.89,-0.044 -5.1166,1.0227 -10.037,3.3602 -13.873,6.5903 -0.73348,0.61766 -1.0051,0.74202 -1.2823,0.58708 z m 0,-5.588 c -0.27116,-0.15158 -0.381,-0.33936 -0.381,-0.6513 0,-0.33976 0.17559,-0.52579 1.4738,-1.5614 3.0469,-2.4306 7.0182,-4.4634 11.042,-5.6521 2.6501,-0.78288 4.9619,-1.1254 7.6348,-1.1313 2.2498,-0.005 3.5768,0.16726 5.1376,0.66668 0.75915,0.24291 0.81339,0.27298 0.94571,0.52438 0.15107,0.287 0.11624,0.52353 -0.11047,0.75025 -0.25286,0.25285 -0.50565,0.26065 -1.2173,0.0376 -1.6703,-0.52358 -3.912,-0.74482 -6.0178,-0.59392 -6.1741,0.44246 -12.475,3.0137 -17.241,7.0356 -0.7186,0.60645 -0.99052,0.72998 -1.2668,0.5755 z m 0.11965,-4.8388 c -0.16714,-0.12834 -0.33132,-0.42935 -0.33132,-0.60747 0,-0.45978 2.7146,-2.5761 5.08,-3.9604 0.89922,-0.52626 2.6125,-1.4196 2.7225,-1.4196 0.0393,0 0.0713,0.33338 0.0711,0.74083 v 0.74084 l -0.78654,0.40017 c -1.7474,0.88907 -4.1078,2.4779 -5.5564,3.7401 -0.56602,0.49321 -0.90002,0.59504 -1.199,0.36552 z m 8.722,-2.758 c -0.14398,-0.1166 -0.21012,-0.28594 -0.25623,-0.65617 -0.0342,-0.27445 -0.0654,-2.5036 -0.0693,-4.9537999 -0.007,-4.384 -0.004,-4.4583 0.16833,-4.6778 0.0965,-0.1227 0.22427,-0.22309 0.28389,-0.22309 0.0596,0 0.54264,-0.20394 1.0734,-0.4532 2.1209,-0.99608 3.6636,-1.4709 6.0873,-1.8737 2.239,-0.3721 2.9716,-0.44586 5.08,-0.5115 2.1263,-0.0662 3.8323,0.0476 4.0848,0.27242 0.39294,0.34983 0.40285,0.46407 0.39659,4.5741 -0.003,2.1319 -0.0339,4.3058999 -0.0681,4.8309999 -0.0934,1.4325 0.11206,1.3379 -2.8282,1.3023 -2.4876,-0.0301 -3.7237,0.0434 -5.5644,0.33059 -2.572,0.40133 -3.4527,0.63474 -5.8988,1.5633 -1.7573,0.66707 -2.1582,0.74366 -2.4892,0.47556 z m 2.0176,-1.7559 c 1.8486,-0.7909 3.1898,-1.1656 5.5691,-1.556 2.1809,-0.35778 3.2636,-0.44371 5.7331,-0.455 l 2.1802,-0.01 V 7.7515521 c 0,-3.14 -0.0236,-4.054 -0.10583,-4.105 -0.1537,-0.0955 -3.9159,-0.0565 -5.0588,0.0524 -1.3809,0.13156 -3.9632,0.56186 -4.9107,0.81829 -0.73577,0.19913 -3.3246,1.1012 -4.0852,1.4235 l -0.3175,0.13453 v 4.0628999 c 0,2.2346 0.0194,4.0629 0.0431,4.0629 0.0237,0 0.45233,-0.17509 0.9525,-0.38909 z m -11.077,-0.19707 c -0.49466,-0.49465 -0.31026,-0.78632 1.3049,-2.0641 1.553,-1.2286 3.4846,-2.4493999 5.3679,-3.3925999 0.61635,-0.30867 1.1402,-0.56122 1.1642,-0.56122 0.0239,0 0.0435,0.33496 0.0435,0.74436 v 0.74437 l -0.48683,0.23566 c -1.9499,0.9438899 -4.4993,2.6218999 -6.0839,4.0044999 -0.67218,0.58649 -0.95078,0.64795 -1.3098,0.28892 z m -3.5096,-1.852 c -0.0411,-0.29075 -0.17569,-0.5119 -0.66974,-1.1007 -3.9178,-4.6687999 -10.181,-7.8150999 -17.655,-8.8689999 -2.6894,-0.37919 -7.1007996,-0.50102 -9.9844996,-0.27573 l -1.3034,0.10183 0.0623,12.0269999 c 0.0343,6.6149 0.0777,12.043 0.0965,12.062 0.0188,0.0191 0.67256,-0.01 1.4528,-0.0647 2.0036,-0.14046 5.8524,-0.12325 7.6415996,0.0342 6.5933,0.58007 11.967,2.394 16.47,5.5598 1.078,0.7579 2.6542,2.0948 3.3848,2.8709 l 0.508,0.53966 0.0245,-11.261 c 0.0135,-6.1934 10e-4,-11.424 -0.027,-11.625 z m -2.9609,16.953 c -0.1397,-0.0726 -0.38735,-0.25774 -0.55033,-0.41152 -1.0119,-0.95477 -3.4378,-2.6062 -5.2335,-3.5628 l -1.1126,-0.59267 -0.002,-0.74083 c -0.001,-0.40746 0.0178,-0.74084 0.0418,-0.74084 0.12307,0 2.0589,1.0237 3.0365,1.6058 1.7583,1.0468 3.9964,2.7091 4.5774,3.3995 0.12399,0.14735 0.21629,0.36266 0.21629,0.50454 0,0.23503 -0.24946,0.58617 -0.41641,0.58617 -0.0428,0 -0.12848,0.019 -0.1905,0.0423 -0.062,0.0232 -0.22706,-0.0171 -0.36676,-0.0897 z m -10.033,-2.4516 c -2.5341,-0.93843 -3.2383,-1.1213 -5.7573,-1.495 -1.5079,-0.22373 -2.0412,-0.26278 -4.0639996,-0.29765 -1.2806,-0.0221 -2.7284,-0.006 -3.2173,0.0365 -1.0719,0.0925 -1.2604,0.0521 -1.4752,-0.31564 -0.159,-0.27224 -0.16588,-0.47693 -0.17074,-5.0774 -0.005,-4.4421 0.006,-4.8105 0.14428,-5.0222 0.27976,-0.4281 0.43195,-0.4694 2.1393,-0.58052 2.9871,-0.19442 7.1586996,0.16765 9.8505996,0.85496 1.2464,0.31823 2.7568,0.87872 4.4318,1.6446 0.50412,0.23049 0.66587,0.34722 0.70672,0.50998 0.0291,0.11609 0.0398,2.3646 0.0236,4.9967 l -0.0294,4.7856 -0.21166,0.21 c -0.39754,0.39442 -0.72357,0.36006 -2.3707,-0.2499 z m 1.27,-5.0393 v -4.067 l -0.35984,-0.1534 c -0.8426,-0.35921 -3.7262,-1.2919 -4.475,-1.4474 -0.94962,-0.19723 -2.6907,-0.45523 -4.0129,-0.59466 -0.8896096,-0.0938 -5.5652996,-0.0937 -5.6585996,0 -0.0232,0.0233 -0.0548,1.8816 -0.0704,4.1296 l -0.0283,4.0872 0.381,-0.0647 c 0.56945,-0.0967 4.6588,-0.0566 5.6302996,0.0553 3.6518,0.42045 5.6847,0.89425 7.7956,1.817 0.36908,0.16132 0.69961,0.29595 0.73454,0.29919 0.0349,0.003 0.0635,-1.8243 0.0635,-4.0611 z m 8.7699,1.9051 c -0.13592,-0.0709 -0.40262,-0.27139 -0.59266,-0.44558 -1.11,-1.0174 -3.4036,-2.5758 -5.1965,-3.5308 l -1.1127,-0.59267 -0.003,-0.74083 c -0.001,-0.40746 0.017,-0.74084 0.0412,-0.74084 0.0939,0 1.8215,0.89367 2.6655,1.3788 1.5856,0.9115 3.6024,2.3465 4.6939,3.3399 0.56979,0.51856 0.62568,1.0299 0.14368,1.3146 -0.30285,0.17889 -0.32869,0.17959 -0.63973,0.0174 z m 0.0212,-4.9289 c -0.16412,-0.12806 -0.68991,-0.5493 -1.1684,-0.93609 -3.6928,-2.985 -8.9172,-5.3294 -13.719,-6.156 -3.3737996,-0.5808 -6.5283996,-0.47834 -8.9746996,0.2915 -0.68786,0.21647 -0.77159,0.21646 -1.0469,0 -0.29526,-0.23225 -0.31166,-0.72899 -0.0326,-0.98741 0.16581,-0.15352 1.0989,-0.4787999 1.8838,-0.6566599 1.6544,-0.37489 4.5109,-0.48693 6.5739996,-0.25785 5.9507,0.6607699 12.108,3.2815999 16.704,7.1099999 1.0301,0.85808 1.1919,1.1973 0.77152,1.6176 -0.27513,0.27512 -0.61817,0.26647 -0.99176,-0.025 z m 0.0142,-4.4 c -0.0699,-0.0261 -0.3556,-0.24531 -0.635,-0.48708 -3.3124,-2.8663 -7.904,-5.2155999 -12.404,-6.3465999 -2.2966,-0.57718 -4.1086,-0.81016 -6.3011996,-0.81016 -1.659,0 -2.9314,0.14649 -4.1835,0.48165 -1.4204,0.38019 -1.6269,0.36953 -1.8486,-0.0954 -0.12824,-0.26893 -0.12677,-0.3037 0.0238,-0.5615 0.19566,-0.33501 0.81325,-0.5646 2.3631,-0.87845 3.8319,-0.77602 8.6005996,-0.24505 13.3699996,1.4887 3.5617,1.2947 6.8788,3.1756 9.588,5.4369999 1.0288,0.85872 1.1553,1.1408 0.71089,1.5852 -0.23876,0.23877 -0.41548,0.287 -0.68385,0.18662 z"
     fill="#3ec954"
     stroke-width="0.084667"
     id="path1"
     style="fill:#ffffff" /></svg>
