<?xml version="1.0" encoding="UTF-8" standalone="no"?>
<!-- Created with Inkscape (http://www.inkscape.org/) -->

<svg
   width="47.587669mm"
   height="47.567383mm"
   version="1.1"
   viewBox="0 0 47.587669 47.567383"
   xml:space="preserve"
   id="svg1"
   sodipodi:docname="sport optimised SVG.svg"
   inkscape:version="1.3.2 (091e20e, 2023-11-25, custom)"
   xmlns:inkscape="http://www.inkscape.org/namespaces/inkscape"
   xmlns:sodipodi="http://sodipodi.sourceforge.net/DTD/sodipodi-0.dtd"
   xmlns="http://www.w3.org/2000/svg"
   xmlns:svg="http://www.w3.org/2000/svg"><defs
     id="defs1" /><sodipodi:namedview
     id="namedview1"
     pagecolor="#ffffff"
     bordercolor="#000000"
     borderopacity="0.25"
     inkscape:showpageshadow="2"
     inkscape:pageopacity="0.0"
     inkscape:pagecheckerboard="0"
     inkscape:deskcolor="#d1d1d1"
     inkscape:document-units="mm"
     inkscape:zoom="1.0449705"
     inkscape:cx="302.40087"
     inkscape:cy="468.43426"
     inkscape:window-width="2560"
     inkscape:window-height="1369"
     inkscape:window-x="-8"
     inkscape:window-y="-8"
     inkscape:window-maximized="1"
     inkscape:current-layer="svg1" /><path
     d="m 21.630204,47.475538 c -3.9589,-0.37734 -7.7162,-1.7048 -10.979,-3.8787 -1.5631998,-1.0417 -2.3888998,-1.7173 -3.6714998,-3.0043 -2.5785,-2.5874 -4.3535,-5.3775 -5.6059,-8.8118 -1.4611,-4.0067 -1.7656,-8.5412 -0.87103,-12.969 0.75002,-3.7127 2.6223,-7.4869 5.2168,-10.5159998 3.5706,-4.1692 8.4435998,-6.9714 13.7809998,-7.9248 1.7715,-0.31642 3.0979,-0.41099 4.998,-0.35635 5.3359,0.15343 10.105,1.9244 14.318,5.3173 4.3877,3.5332 7.5262,8.8964998 8.4175,14.3849998 0.55168,3.3967 0.46278,6.2286 -0.30166,9.6097 -0.70258,3.1075 -2.5132,6.7803 -4.6438,9.4201 -2.7832,3.4483 -6.6108,6.1005 -10.975,7.605 -2.8566,0.98468 -6.5974,1.4193 -9.6841,1.1251 z m 4.4238,-1.4843 c 0.29105,-0.0287 0.52793,-0.0755 0.52643,-0.10401 -0.001,-0.0285 -0.63471,-0.38643 -1.4071,-0.79542 l -1.4044,-0.74363 -1.3869,0.74211 c -0.7628,0.40816 -1.3869,0.76795 -1.3869,0.79953 0,0.0316 0.31433,0.0803 0.6985,0.10827 0.38418,0.028 0.8509,0.0657 1.0372,0.0839 0.41418,0.0405 2.5972,-0.0192 3.3232,-0.0908 z m -5.2629,-1.7116 2.1937,-1.1748 0.0219,-4.6563 c 0.0172,-3.6611 -8.5e-4,-4.6745 -0.0847,-4.7416 -0.0586,-0.0469 -1.7554,-0.96607 -3.7706,-2.0425 l -3.664,-1.9572 -7.5290998,4.0208 -9.3e-4,2.8919 -9.4e-4,2.8919 0.5715,0.55067 c 2.0593998,1.9844 4.9041998,3.7286 7.6834998,4.711 0.9244,0.32676 2.0675,0.67018 2.2513,0.67633 0.074,0.002 1.1218,-0.52414 2.3283,-1.1703 z m 9.848,0.73701 c 2.8009,-0.91115 5.2786,-2.2852 7.532,-4.177 0.40206,-0.33754 0.8744,-0.76341 1.0496,-0.94638 l 0.31863,-0.33269 -0.0223,-2.9163 -0.0223,-2.9163 -3.048,-1.6339 c -1.6764,-0.89865 -3.3641,-1.7939 -3.7505,-1.9894 l -0.70256,-0.35548 -0.65211,0.33911 c -0.35866,0.18651 -2.0332,1.0779 -3.7213,1.9809 l -3.0692,1.6418 0.002,4.7075 0.002,4.7075 2.1778,1.1642 c 2.5109,1.3423 2.1934,1.2833 3.9055,0.72633 z m 10.766,-7.5046 c 1.0852,-1.4304 1.9866,-2.9229 2.669,-4.419 0.24425,-0.53551 0.43363,-0.98422 0.42083,-0.99713 -0.0128,-0.0129 -0.8001,0.3925 -1.7496,0.90091 l -1.7263,0.92439 -0.0227,1.9989 c -0.0125,1.0994 0.007,1.9968 0.0423,1.9941 0.0358,-0.003 0.20068,-0.18364 0.36646,-0.40217 z m -34.9499998,-3.7511 c -0.15698,-0.15279 -3.3695,-1.8323 -3.3914,-1.773 -0.0427,0.11559 0.64565,1.6232 1.1812,2.5868 0.53418,0.96123 1.3871,2.2555 1.9235,2.9188 l 0.30636,0.37886 0.0227,-2.024 c 0.0125,-1.1132 -0.007,-2.0526 -0.0423,-2.0874 z m 36.4639998,-2.5129 2.3236,-1.2454 0.19239,-0.762 c 0.67861,-2.6878 0.85061,-5.6737 0.48285,-8.382 -0.17062,-1.2565 -0.52784,-2.9396 -0.65076,-3.0663 -0.055,-0.0566 -1.166,-0.67194 -2.4689,-1.3674 l -2.369,-1.2645 -0.84824,0.45675 c -0.46653,0.25122 -2.153,1.1523 -3.7476,2.0024 l -2.8994,1.5456 0.0208,4.6873 0.0207,4.6873 3.683,1.9761 c 2.0256,1.0868 3.7402,1.9764 3.81,1.9768 0.0699,0 1.1726,-0.55972 2.4506,-1.2447 z m -32.173,-0.70719 c 1.935,-1.0311 3.6041,-1.9276 3.7093,-1.9921 l 0.19121,-0.11732 -0.0219,-4.6996 -0.0219,-4.6996 -3.175,-1.6961 c -1.7461998,-0.93285 -3.4239998,-1.8304 -3.7282998,-1.9946 l -0.55331,-0.29857 -4.8549,2.5983 -0.22003,0.91435 c -0.43195,1.7951 -0.57638,3.0701 -0.58216,5.1393 -0.006,1.9897 0.0644,2.7444 0.42001,4.5297 0.35231,1.7688 0.0287,1.4294 2.7655,2.8996 1.3161,0.70702 2.429,1.2868 2.4732,1.2884 0.0441,0.002 1.6634,-0.84071 3.5982998,-1.8718 z m 16.768,-0.10319 3.683,-1.9733 0.0438,-9.3902 -7.4807,-3.9986 -0.76886,0.41481 c -0.42287,0.22815 -2.1114,1.1293 -3.7522,2.0026 l -2.9833,1.5878 0.04,9.3742 3.683,1.9776 c 2.0256,1.0877 3.7211,1.9778 3.7677,1.9781 0.0466,0 1.742,-0.88753 3.7677,-1.9729 z m -9.9056,-13.777 c 1.1407,-0.60925 2.8268,-1.5087 3.7469,-1.9988 l 1.6729,-0.89111 -0.0219,-4.6625998 -0.0219,-4.6626 -2.159,-1.1643 c -1.1874,-0.64037 -2.2425,-1.167 -2.3446,-1.1702 -0.28085,-0.0089 -2.0697,0.55281 -3.0867,0.96928 -2.5725,1.0534 -4.5409,2.303 -6.7829998,4.3058 l -0.65725,0.58712 0.0222,2.9233998 0.0223,2.9235 3.6829998,1.9729 c 2.0256,1.0851 3.7212,1.9735 3.768,1.9742 0.0468,8.5e-4 1.0183,-0.49722 2.159,-1.1065 z m 18.253,-0.85729 3.6753,-1.965 V 7.8912782 l -0.8255,-0.72863 c -2.5415,-2.2432 -5.3329,-3.8139 -8.4716,-4.7668 -0.52657,-0.15987 -1.0384,-0.29068 -1.1374,-0.29068 -0.099,0 -1.1633,0.52388 -2.3652,1.1642 l -2.1852,1.1642 0.0412,9.3917998 3.683,1.9709 c 2.0256,1.084 3.7341,1.9712 3.7965,1.9716 0.0624,0 1.7674,-0.88357 3.7888,-1.9643 z m 8.6201,-0.42682 c -0.27179,-0.73075 -1.3127,-2.7547 -1.818,-3.5348 -0.65631,-1.0134 -1.5315,-2.2012998 -1.6217,-2.2012998 -0.0378,0 -0.0585,0.9374898 -0.0461,2.0832998 l 0.0226,2.0833 1.778,0.96124 c 0.9779,0.52869 1.7872,0.9628 1.7985,0.9647 0.0113,0.002 -0.0397,-0.15847 -0.11336,-0.35638 z m -38.6839998,-1.2672 0.67734,-0.36371 0.0227,-2.0103 c 0.0125,-1.1057 -0.007,-2.0094998 -0.0423,-2.0084998 -0.10792,0.003 -1.4055,1.8461998 -1.9214,2.7292998 -0.48194,0.82501 -1.3361,2.5544 -1.4456,2.9268 -0.0606,0.20613 0.0544,0.15206 2.7093,-1.2736 z M 25.267604,2.4013582 l 1.4349,-0.76152 -0.41939,-0.07371 c -0.54808,-0.09632 -4.4449,-0.09547 -4.9914,0.0011 l -0.42333,0.07481 1.4393,0.77875 c 0.79164,0.42831 1.4586,0.7705 1.4822,0.76042 0.0236,-0.01008 0.68853,-0.36101 1.4777,-0.77984 z"
     fill="#04ca67"
     stroke-width="0.084667"
     id="path1"
     style="fill:#ffffff" /></svg>
